<svg width="13" height="16" viewBox="0 0 13 16" fill="none" xmlns="http://www.w3.org/2000/svg">
<path fill-rule="evenodd" clip-rule="evenodd" d="M3.33618 13.982L1.56918 14.882C1.5005 14.9162 1.41897 14.9121 1.35403 14.8713C1.28909 14.8304 1.25012 14.7587 1.25118 14.682V1.955C1.24057 1.4384 1.65059 1.01093 2.16718 1H11.3342C11.8508 1.01093 12.2608 1.4384 12.2502 1.955V14.682C12.2512 14.7587 12.2123 14.8304 12.1473 14.8713C12.0824 14.9121 12.0009 14.9162 11.9322 14.882L10.1652 13.982C10.0948 13.9461 10.0104 13.9514 9.94518 13.996L8.52318 14.962C8.44955 15.0121 8.35281 15.0121 8.27918 14.962L6.87318 14.007C6.79955 13.9569 6.70281 13.9569 6.62918 14.007L5.22318 14.962C5.14955 15.0121 5.05281 15.0121 4.97918 14.962L3.55618 14C3.49168 13.9542 3.40727 13.9472 3.33618 13.982Z" stroke="white" stroke-width="1.5" stroke-linecap="round" stroke-linejoin="round"/>
<path d="M3.75024 7.25C3.33603 7.25 3.00024 7.58579 3.00024 8C3.00024 8.41421 3.33603 8.75 3.75024 8.75V7.25ZM9.75024 8.75C10.1645 8.75 10.5002 8.41421 10.5002 8C10.5002 7.58579 10.1645 7.25 9.75024 7.25V8.75ZM4.75024 9.25C4.33603 9.25 4.00024 9.58579 4.00024 10C4.00024 10.4142 4.33603 10.75 4.75024 10.75V9.25ZM8.75024 10.75C9.16446 10.75 9.50024 10.4142 9.50024 10C9.50024 9.58579 9.16446 9.25 8.75024 9.25V10.75ZM4.75024 5.25C4.33603 5.25 4.00024 5.58579 4.00024 6C4.00024 6.41421 4.33603 6.75 4.75024 6.75V5.25ZM8.75024 6.75C9.16446 6.75 9.50024 6.41421 9.50024 6C9.50024 5.58579 9.16446 5.25 8.75024 5.25V6.75ZM3.75024 8.75H9.75024V7.25H3.75024V8.75ZM4.75024 10.75H8.75024V9.25H4.75024V10.75ZM4.75024 6.75H8.75024V5.25H4.75024V6.75Z" fill="white"/>
</svg>
