<svg width="14" height="21" viewBox="0 0 14 21" fill="none" xmlns="http://www.w3.org/2000/svg">
<path fill-rule="evenodd" clip-rule="evenodd" d="M9.92599 8.03699H4.07999C2.33563 8.08387 0.958776 9.53456 1.00299 11.279V15.216C0.958776 16.9604 2.33563 18.4111 4.07999 18.458H9.92599C11.6703 18.4111 13.0472 16.9604 13.003 15.216V11.279C13.0472 9.53456 11.6703 8.08387 9.92599 8.03699V8.03699Z" stroke="white" stroke-width="1.5" stroke-linecap="round" stroke-linejoin="round"/>
<path d="M3.25294 8.037C3.25294 8.45121 3.58873 8.787 4.00294 8.787C4.41716 8.787 4.75294 8.45121 4.75294 8.037H3.25294ZM4.00294 3.361H4.75295L4.75294 3.35816L4.00294 3.361ZM5.84894 1.5V0.749993L5.84571 0.750007L5.84894 1.5ZM8.15694 1.5L8.16017 0.75H8.15694V1.5ZM10.0029 3.361L9.25294 3.35816V3.361H10.0029ZM9.25294 8.038C9.25294 8.45221 9.58873 8.788 10.0029 8.788C10.4172 8.788 10.7529 8.45221 10.7529 8.038H9.25294ZM9.25294 19.5C9.25294 19.9142 9.58873 20.25 10.0029 20.25C10.4172 20.25 10.7529 19.9142 10.7529 19.5H9.25294ZM10.7529 18.458C10.7529 18.0438 10.4172 17.708 10.0029 17.708C9.58873 17.708 9.25294 18.0438 9.25294 18.458H10.7529ZM3.25294 19.5C3.25294 19.9142 3.58873 20.25 4.00294 20.25C4.41716 20.25 4.75294 19.9142 4.75294 19.5H3.25294ZM4.75294 18.458C4.75294 18.0438 4.41716 17.708 4.00294 17.708C3.58873 17.708 3.25294 18.0438 3.25294 18.458H4.75294ZM5.00294 10.934C4.58873 10.934 4.25294 11.2698 4.25294 11.684C4.25294 12.0982 4.58873 12.434 5.00294 12.434V10.934ZM9.00294 12.434C9.41716 12.434 9.75294 12.0982 9.75294 11.684C9.75294 11.2698 9.41716 10.934 9.00294 10.934V12.434ZM5.00294 14.061C4.58873 14.061 4.25294 14.3968 4.25294 14.811C4.25294 15.2252 4.58873 15.561 5.00294 15.561V14.061ZM9.00294 15.561C9.41716 15.561 9.75294 15.2252 9.75294 14.811C9.75294 14.3968 9.41716 14.061 9.00294 14.061V15.561ZM4.75294 8.037V3.361H3.25294V8.037H4.75294ZM4.75294 3.35816C4.75063 2.74867 5.24268 2.25262 5.85217 2.24999L5.84571 0.750007C4.40811 0.7562 3.24751 1.92623 3.25295 3.36384L4.75294 3.35816ZM5.84894 2.25H8.15694V0.75H5.84894V2.25ZM8.15371 2.24999C8.7632 2.25262 9.25526 2.74867 9.25295 3.35816L10.7529 3.36384C10.7584 1.92623 9.59778 0.7562 8.16017 0.750007L8.15371 2.24999ZM9.25294 3.361V8.038H10.7529V3.361H9.25294ZM10.7529 19.5V18.458H9.25294V19.5H10.7529ZM4.75294 19.5V18.458H3.25294V19.5H4.75294ZM5.00294 12.434H9.00294V10.934H5.00294V12.434ZM5.00294 15.561H9.00294V14.061H5.00294V15.561Z" fill="white"/>
</svg>
