<svg width="16" height="18" viewBox="0 0 16 18" fill="none" xmlns="http://www.w3.org/2000/svg">
<path d="M4.22806 14.4C4.22806 13.9858 3.89227 13.65 3.47806 13.65C3.06384 13.65 2.72806 13.9858 2.72806 14.4H4.22806ZM3.47806 15.45H2.72806C2.72806 15.4613 2.72831 15.4725 2.72882 15.4838L3.47806 15.45ZM2.52406 16.5L2.48679 17.2491C2.51187 17.2503 2.53699 17.2503 2.56206 17.249L2.52406 16.5ZM1.56906 15.45L2.3183 15.4837C2.3188 15.4725 2.31906 15.4612 2.31906 15.45H1.56906ZM2.31906 14.213C2.31906 13.7988 1.98327 13.463 1.56906 13.463C1.15484 13.463 0.819056 13.7988 0.819056 14.213H2.31906ZM1.97422 13.5819C1.62565 13.3581 1.16168 13.4593 0.937913 13.8078C0.714147 14.1564 0.815321 14.6204 1.16389 14.8441L1.97422 13.5819ZM2.20506 14.4L2.20413 15.15H2.20506V14.4ZM13.6601 14.4V15.15L13.661 15.15L13.6601 14.4ZM14.7012 14.8441C15.0498 14.6204 15.151 14.1564 14.9272 13.8078C14.7034 13.4593 14.2395 13.3581 13.8909 13.5819L14.7012 14.8441ZM1.15272 14.8368C1.49726 15.0668 1.96296 14.9739 2.19289 14.6293C2.42282 14.2848 2.32992 13.8191 1.98539 13.5892L1.15272 14.8368ZM0.933056 13L1.68306 13.0124V13H0.933056ZM1.68306 7.7C1.68306 7.28579 1.34727 6.95 0.933056 6.95C0.518842 6.95 0.183056 7.28579 0.183056 7.7H1.68306ZM13.1381 14.4C13.1381 13.9858 12.8023 13.65 12.3881 13.65C11.9738 13.65 11.6381 13.9858 11.6381 14.4H13.1381ZM12.3881 15.45L13.1345 15.5226C13.1369 15.4985 13.1381 15.4742 13.1381 15.45H12.3881ZM12.8365 16.3574L12.4407 16.9945V16.9945L12.8365 16.3574ZM13.8486 16.3574L14.2444 16.9945L13.8486 16.3574ZM14.2971 15.45H13.5471C13.5471 15.4742 13.5482 15.4985 13.5506 15.5226L14.2971 15.45ZM15.0471 14.213C15.0471 13.7988 14.7113 13.463 14.2971 13.463C13.8828 13.463 13.5471 13.7988 13.5471 14.213H15.0471ZM13.8807 13.5892C13.5362 13.8191 13.4433 14.2848 13.6732 14.6293C13.9032 14.9739 14.3689 15.0668 14.7134 14.8368L13.8807 13.5892ZM14.9331 13H14.183L14.1832 13.0124L14.9331 13ZM15.6831 7.7C15.6831 7.28579 15.3473 6.95 14.9331 6.95C14.5188 6.95 14.1831 7.28579 14.1831 7.7H15.6831ZM3.26606 10.15C2.85184 10.15 2.51606 10.4858 2.51606 10.9C2.51606 11.3142 2.85184 11.65 3.26606 11.65V10.15ZM4.04406 11.65C4.45827 11.65 4.79406 11.3142 4.79406 10.9C4.79406 10.4858 4.45827 10.15 4.04406 10.15V11.65ZM11.8221 10.15C11.4078 10.15 11.0721 10.4858 11.0721 10.9C11.0721 11.3142 11.4078 11.65 11.8221 11.65V10.15ZM12.6001 11.65C13.0143 11.65 13.3501 11.3142 13.3501 10.9C13.3501 10.4858 13.0143 10.15 12.6001 10.15V11.65ZM14.1831 7.7C14.1831 8.11421 14.5188 8.45 14.9331 8.45C15.3473 8.45 15.6831 8.11421 15.6831 7.7H14.1831ZM14.9331 2.9H15.6831V2.89983L14.9331 2.9ZM14.7331 2.152L14.0744 2.51065C14.0772 2.51586 14.0801 2.52103 14.0831 2.52617L14.7331 2.152ZM13.6601 1.5L13.6749 0.750148C13.67 0.750049 13.665 0.75 13.6601 0.75V1.5ZM2.20606 1.5V0.75C2.20109 0.75 2.19613 0.750049 2.19117 0.750148L2.20606 1.5ZM1.13306 2.152L1.78306 2.52617C1.78601 2.52103 1.78891 2.51586 1.79174 2.51065L1.13306 2.152ZM0.933056 2.9L0.183056 2.89983V2.9H0.933056ZM0.183056 7.7C0.183056 8.11421 0.518842 8.45 0.933056 8.45C1.34727 8.45 1.68306 8.11421 1.68306 7.7H0.183056ZM14.9331 8.45C15.3473 8.45 15.6831 8.11421 15.6831 7.7C15.6831 7.28579 15.3473 6.95 14.9331 6.95V8.45ZM0.933056 6.95C0.518842 6.95 0.183056 7.28579 0.183056 7.7C0.183056 8.11421 0.518842 8.45 0.933056 8.45V6.95ZM2.72806 14.4V15.45H4.22806V14.4H2.72806ZM2.72882 15.4838C2.73516 15.6244 2.62669 15.7438 2.48605 15.751L2.56206 17.249C3.52675 17.2001 4.27078 16.3812 4.2273 15.4162L2.72882 15.4838ZM2.56132 15.7509C2.42058 15.7439 2.31196 15.6245 2.3183 15.4837L0.819815 15.4163C0.776345 16.3819 1.52141 17.2011 2.48679 17.2491L2.56132 15.7509ZM2.31906 15.45V14.213H0.819056V15.45H2.31906ZM1.16389 14.8441C1.47429 15.0434 1.83528 15.1495 2.20413 15.15L2.20598 13.65C2.1238 13.6499 2.04338 13.6263 1.97422 13.5819L1.16389 14.8441ZM2.20506 15.15H13.6601V13.65H2.20506V15.15ZM13.661 15.15C14.0298 15.1495 14.3908 15.0434 14.7012 14.8441L13.8909 13.5819C13.8217 13.6263 13.7413 13.6499 13.6591 13.65L13.661 15.15ZM1.98539 13.5892C1.79307 13.4608 1.67915 13.2435 1.68295 13.0124L0.183158 12.9876C0.170946 13.7288 0.536171 14.4254 1.15272 14.8368L1.98539 13.5892ZM1.68306 13V7.7H0.183056V13H1.68306ZM11.6381 14.4V15.45H13.1381V14.4H11.6381ZM11.6416 15.3774C11.5787 16.0246 11.8884 16.6513 12.4407 16.9945L13.2323 15.7203C13.1647 15.6784 13.1268 15.6017 13.1345 15.5226L11.6416 15.3774ZM12.4407 16.9945C12.993 17.3376 13.6921 17.3376 14.2444 16.9945L13.4528 15.7203C13.3853 15.7623 13.2998 15.7623 13.2323 15.7203L12.4407 16.9945ZM14.2444 16.9945C14.7967 16.6513 15.1065 16.0246 15.0435 15.3774L13.5506 15.5226C13.5583 15.6017 13.5204 15.6784 13.4528 15.7203L14.2444 16.9945ZM15.0471 15.45V14.213H13.5471V15.45H15.0471ZM14.7134 14.8368C15.3299 14.4254 15.6952 13.7288 15.683 12.9876L14.1832 13.0124C14.187 13.2435 14.073 13.4608 13.8807 13.5892L14.7134 14.8368ZM15.6831 13V7.7H14.1831V13H15.6831ZM3.26606 11.65H4.04406V10.15H3.26606V11.65ZM11.8221 11.65H12.6001V10.15H11.8221V11.65ZM15.6831 7.7V2.9H14.1831V7.7H15.6831ZM15.6831 2.89983C15.683 2.50603 15.5795 2.11914 15.3831 1.77783L14.0831 2.52617C14.1485 2.63993 14.183 2.7689 14.1831 2.90017L15.6831 2.89983ZM15.3917 1.79335C15.0483 1.16258 14.393 0.764404 13.6749 0.750148L13.6452 2.24985C13.8247 2.25342 13.9885 2.35296 14.0744 2.51065L15.3917 1.79335ZM13.6601 0.75H2.20606V2.25H13.6601V0.75ZM2.19117 0.750148C1.4731 0.764404 0.817817 1.16258 0.474369 1.79335L1.79174 2.51065C1.87761 2.35296 2.04143 2.25342 2.22094 2.24985L2.19117 0.750148ZM0.483056 1.77783C0.28659 2.11914 0.183143 2.50602 0.183056 2.89983L1.68306 2.90017C1.68309 2.7689 1.71757 2.63993 1.78306 2.52617L0.483056 1.77783ZM0.183056 2.9V7.7H1.68306V2.9H0.183056ZM14.9331 6.95H0.933056V8.45H14.9331V6.95Z" fill="white"/>
</svg>
