<?xml version="1.0"?>
<svg xmlns="http://www.w3.org/2000/svg" height="512px" viewBox="-121 -20 642 642.67143" width="512px"><path d="m392.339844 148.800781c-1.578125-2.941406-4.378906-5.03125-7.652344-5.703125-.820312-.164062-1.660156-.242187-2.5-.222656h-247.925781c-6.207031 0-11.242188 5.027344-11.242188 11.238281v102.203125c0 6.207032 5.035157 11.242188 11.242188 11.242188 6.210937 0 11.242187-5.035156 11.242187-11.242188v-90.960937h160.191406l-107.863281 32.292969c-4.753906 1.425781-8.015625 5.800781-8.015625 10.769531v317.296875h-44.3125v-86.976563c0-6.210937-5.03125-11.238281-11.242187-11.238281-6.207031 0-11.242188 5.027344-11.242188 11.238281v98.21875c0 6.210938 5.035157 11.242188 11.242188 11.242188h55.554687v43.066406c0 3.550781 1.679688 6.890625 4.527344 9.015625 2.851562 2.121094 6.535156 2.769531 9.941406 1.75l181.371094-54.300781c4.757812-1.425781 8.023438-5.808594 8.023438-10.773438v-382.585937c.039062-1.941406-.421876-3.863282-1.339844-5.570313zm-21.144532 379.789063-158.894531 47.574218v-359.378906l158.894531-47.570312zm0 0" fill="#FFFFFF"/><path d="m254.601562 396.421875c16.558594 0 29.972657-13.421875 29.972657-29.976563 0-16.554687-13.414063-29.976562-29.972657-29.976562-16.554687 0-29.976562 13.421875-29.976562 29.976562.019531 16.542969 13.429688 29.957032 29.976562 29.976563zm0-37.472656c4.140626 0 7.492188 3.359375 7.492188 7.496093 0 4.136719-3.351562 7.492188-7.492188 7.492188-4.140624 0-7.496093-3.355469-7.496093-7.492188.003906-4.136718 3.363281-7.492187 7.496093-7.496093zm0 0" fill="#FFFFFF"/><path d="m173.886719 337.261719-51.222657-51.222657c-4.390624-4.390624-11.507812-4.390624-15.898437 0-4.390625 4.386719-4.390625 11.503907 0 15.894532l32.035156 32.035156h-134c-6.207031 0-11.242187 5.03125-11.242187 11.242188 0 6.207031 5.035156 11.242187 11.242187 11.242187h134l-32.035156 32.035156c-4.390625 4.386719-4.390625 11.503907 0 15.894531 4.390625 4.390626 11.507813 4.390626 15.898437 0l51.222657-51.222656c4.386719-4.390625 4.386719-11.511718 0-15.898437zm0 0" fill="#FFFFFF"/></svg>
