<?xml version="1.0" encoding="utf-8"?>
<!-- Generator: Adobe Illustrator 18.1.1, SVG Export Plug-In . SVG Version: 6.00 Build 0)  -->
<svg version="1.1" id="Layer_1" xmlns="http://www.w3.org/2000/svg" xmlns:xlink="http://www.w3.org/1999/xlink" x="0px" y="0px"
	 viewBox="0 0 28.4 28.4" enable-background="new 0 0 28.4 28.4" xml:space="preserve">
<g>
	<path fill="#f33d44" d="M14.2,0C6.4,0,0,6.4,0,14.2C0,22,6.4,28.4,14.2,28.4S28.4,22,28.4,14.2C28.4,6.4,22,0,14.2,0z"/>
	<path fill="#FFFFFF" d="M12.2,14.2L18.9,7c0.5-0.5,0.5-1.4-0.1-1.8c-0.5-0.5-1.4-0.5-1.8,0.1l-7.4,8c-0.2,0.2-0.3,0.5-0.3,0.8
		c0,0,0,0.1,0,0.1c0,0,0,0.1,0,0.1c0,0.3,0.1,0.6,0.3,0.8l7.4,8c0.3,0.3,0.6,0.4,1,0.4c0.3,0,0.6-0.1,0.9-0.3
		c0.5-0.5,0.6-1.3,0.1-1.8L12.2,14.2z"/>
</g>
</svg>
