<?xml version="1.0" encoding="utf-8"?>
<!-- Generator: Adobe Illustrator 18.1.1, SVG Export Plug-In . SVG Version: 6.00 Build 0)  -->
<svg version="1.1" id="Layer_1" xmlns="http://www.w3.org/2000/svg" xmlns:xlink="http://www.w3.org/1999/xlink" x="0px" y="0px"
	 viewBox="0 0 141.73 141.73" enable-background="new 0 0 141.73 141.73" xml:space="preserve">
<g>
	<g>
		<path fill="#FFFFFF" d="M90.68,88.72l-10.55,3.45c-3.84,1.34-5.75,4.41-5.75,8.82c0,2.88,2.88,4.99,6.71,4.99h10.36
			c3.84,0,6.14-2.3,6.14-5.75v-4.41c0-1.92,0-4.6-1.53-6.33C94.7,88.15,92.59,87.96,90.68,88.72z M93.17,95.82v4.41
			c0,0.96,0,1.34-1.53,1.34H81.28c-1.34,0-2.11-0.38-2.3-0.58c0-2.49,0.77-3.84,2.69-4.41l10.55-3.45c0.38-0.19,0.58-0.19,0.58-0.19
			C93.17,93.33,93.17,95.05,93.17,95.82z"/>
		<path fill="#FFFFFF" d="M42.72,92.18l-9.97-3.45c-2.3-0.96-4.03-0.58-5.18,0.58c-1.53,1.53-1.34,4.03-1.34,5.95
			c0,0.38,0,0.58,0,0.96v3.84c0,1.34,0,5.75,5.18,5.75h10.36c3.84,0,6.71-2.11,6.71-4.99C48.67,96.59,46.56,93.52,42.72,92.18z
			 M41.95,101.58H31.6c-0.38,0-0.58,0-0.58,0l0,0c0-0.19-0.19-0.58-0.19-1.34V96.4c0-0.38,0-0.77,0-0.96c0-0.58,0-1.73,0-2.49
			c0.19,0,0.38,0,0.58,0.19l10.17,3.45c1.34,0.38,2.69,1.34,2.69,4.41C44.06,101,43.3,101.58,41.95,101.58z"/>
		<path fill="#FFFFFF" d="M108.71,34.63h-2.3v-6.71c0-5.95-4.41-12.28-9.97-14c-24.17-7.29-44.89-7.29-69.05,0
			c-5.56,1.73-9.97,7.86-9.97,14v6.71h-2.3c-3.64,0-6.71,3.07-6.71,6.71v20.14c0,3.64,3.07,6.71,6.71,6.71h2.3v40.47
			c0,4.8,2.69,8.63,6.71,10.17v2.88c0,3.64,3.07,6.71,6.71,6.71h6.52c3.64,0,6.71-3.07,6.71-6.71v-2.3h35.68v2.3
			c0,3.64,3.07,6.71,6.71,6.71h6.71c3.64,0,6.71-3.07,6.71-6.71v-3.07c4.03-1.73,6.71-5.56,6.71-9.97V68.2h2.3
			c3.64,0,6.71-3.07,6.71-6.71V41.35C115.42,37.7,112.35,34.63,108.71,34.63z M28.53,18.33c23.4-6.91,43.16-6.91,66.56,0
			c3.45,0.96,6.52,5.18,6.71,9.02c-2.11-1.92-4.8-3.26-7.86-3.64c-4.22-0.58-8.44-0.96-13.43-1.53c-0.58,0-1.15,0.19-1.53,0.58
			c-0.58,0.58-1.15,0.96-1.53,1.53c-0.96,1.15-1.53,1.53-2.69,1.53H48.28c-0.96,0-1.15-0.19-1.92-1.15
			c-0.58-0.58-1.34-1.34-2.49-2.11c-0.38-0.19-0.77-0.38-1.34-0.38c-4.6,0.38-8.82,0.77-12.66,1.34c-3.07,0.38-5.75,1.73-7.86,3.64
			C22.2,23.31,25.07,19.29,28.53,18.33z M97.01,114.62c-0.96,0.19-1.73,1.15-1.73,2.11v4.8c0,1.15-0.96,2.3-2.3,2.3h-6.71
			c-1.15,0-2.3-0.96-2.3-2.3v-4.41c0-1.15-0.96-2.3-2.3-2.3h-39.9c-1.15,0-2.3,0.96-2.3,2.3v4.41c0,1.15-0.96,2.3-2.3,2.3h-6.71
			c-1.15,0-2.3-0.96-2.3-2.3v-4.6c0-1.15-0.77-1.92-1.92-2.11c-2.88-0.58-4.8-2.88-4.8-6.14V75.11c2.11,1.92,4.8,3.26,7.86,3.64
			c10.74,1.53,21.48,2.3,32.03,2.3c10.74,0,21.29-0.77,32.03-2.3c3.26-0.38,5.95-1.92,8.25-3.84v33.76
			C101.99,111.55,100.08,114.04,97.01,114.62z M111.01,61.49c0,1.15-0.96,2.3-2.3,2.3h-2.3V52.66v-4.41c0-1.15-0.96-2.3-2.3-2.3
			c-1.15,0-2.3,0.96-2.3,2.3v4.41v13.04c0,3.45-3.64,7.67-8.82,8.44c-21.1,3.07-41.82,3.07-62.92,0c-5.18-0.77-8.44-4.99-8.44-8.44
			V50.36v-2.3c0-1.15-0.96-2.3-2.3-2.3c-1.15,0-2.3,0.96-2.3,2.3v2.3v13.43h-2.3c-1.15,0-2.3-0.96-2.3-2.3V41.35
			c0-1.15,0.96-2.3,2.3-2.3h4.41c1.15,0,2.3-0.96,2.3-2.3v-0.38c0-3.45,3.26-7.67,8.63-8.63c3.64-0.58,7.48-0.96,11.7-1.34
			c0.38,0.19,0.58,0.58,0.96,0.96c0.96,1.15,2.49,2.49,5.18,2.49h26.66c3.07,0,4.8-1.73,5.95-3.07c0.19-0.19,0.38-0.38,0.38-0.58
			c4.41,0.38,8.25,0.77,12.08,1.34c5.37,0.77,8.63,4.99,8.63,8.63v0.77c0,1.15,0.96,2.3,2.3,2.3h4.41c1.15,0,2.3,0.96,2.3,2.3v19.95
			H111.01z"/>
	</g>
	<path fill="#FFFFFF" d="M135.37,80.28c-4.22,0-6.52,1.34-8.44,2.49c-1.73,1.15-3.07,1.92-6.14,1.92c-3.07,0-4.41-0.77-6.14-1.92
		c-1.92-1.15-4.22-2.49-8.44-2.49c-1.15,0-2.3,0.96-2.3,2.3c0,1.15,0.96,2.3,2.3,2.3c3.07,0,4.41,0.77,6.14,1.92
		c1.92,1.15,4.22,2.49,8.44,2.49c4.22,0,6.52-1.34,8.44-2.49c1.73-1.15,3.07-1.92,6.14-1.92c0.19,0,0.38,0,0.58,0v-4.41
		C135.75,80.48,135.56,80.28,135.37,80.28z"/>
	<path fill="#FFFFFF" d="M135.37,98.12c-4.22,0-6.52,1.34-8.44,2.49c-1.73,1.15-3.07,1.92-6.14,1.92c-3.07,0-4.41-0.77-6.14-1.92
		c-1.92-1.15-4.22-2.49-8.44-2.49c-1.15,0-2.3,0.96-2.3,2.3c0,1.34,0.96,2.3,2.3,2.3c3.07,0,4.41,0.77,6.14,1.92
		c1.92,1.15,4.22,2.49,8.44,2.49c4.22,0,6.52-1.34,8.44-2.49c1.73-1.15,3.07-1.92,6.14-1.92c0.19,0,0.38,0,0.58,0v-4.41
		C135.75,98.12,135.56,98.12,135.37,98.12z"/>
</g>
</svg>
