<svg xmlns="http://www.w3.org/2000/svg" width="16.786" height="16.786" viewBox="0 0 16.786 16.786"><defs><style>.a{fill:#00b4f1;}</style></defs><circle class="a" cx="0.5" cy="0.5" r="0.5" transform="translate(12.5 6.5)"/><path class="a" d="M14.163,1.311H13.31V.656A.656.656,0,0,0,12,.656v.656H9.016V.656A.656.656,0,0,0,7.7.656v.656H4.754V.656a.656.656,0,0,0-1.311,0v.656h-.82A2.626,2.626,0,0,0,0,3.934V14.163a2.626,2.626,0,0,0,2.623,2.623H7.639a.656.656,0,1,0,0-1.311H2.623a1.313,1.313,0,0,1-1.311-1.311V3.934A1.313,1.313,0,0,1,2.623,2.623h.82v.656a.656.656,0,1,0,1.311,0V2.623H7.7v.656a.656.656,0,0,0,1.311,0V2.623H12v.656a.656.656,0,0,0,1.311,0V2.623h.852a1.313,1.313,0,0,1,1.311,1.311V7.672a.656.656,0,1,0,1.311,0V3.934A2.626,2.626,0,0,0,14.163,1.311Z"/><path class="a" d="M273.967,270a3.967,3.967,0,1,0,3.967,3.967A3.971,3.971,0,0,0,273.967,270Zm0,6.622a2.656,2.656,0,1,1,2.656-2.656A2.659,2.659,0,0,1,273.967,276.622Z" transform="translate(-261.148 -261.148)"/><path class="a" d="M372.606,331.344h-.3v-.688a.656.656,0,0,0-1.311,0V332a.656.656,0,0,0,.656.656h.951a.656.656,0,1,0,0-1.311Z" transform="translate(-358.837 -319.181)"/><circle class="a" cx="0.5" cy="0.5" r="0.5" transform="translate(9.5 6.5)"/><circle class="a" cx="0.5" cy="0.5" r="0.5" transform="translate(6.5 9.5)"/><circle class="a" cx="0.5" cy="0.5" r="0.5" transform="translate(3.5 6.5)"/><circle class="a" cx="0.5" cy="0.5" r="0.5" transform="translate(3.5 9.5)"/><circle class="a" cx="0.5" cy="0.5" r="0.5" transform="translate(3.5 12.5)"/><circle class="a" cx="0.5" cy="0.5" r="0.5" transform="translate(6.5 12.5)"/><circle class="a" cx="0.5" cy="0.5" r="0.5" transform="translate(6.5 6.5)"/></svg>