<svg xmlns="http://www.w3.org/2000/svg" width="18.286" height="18.286" viewBox="0 0 18.286 18.286"><defs><style>.a{fill:#00b4f1;}</style></defs><g transform="translate(1 1)"><g transform="translate(-1 -1)"><path class="a" d="M8.143-1a9.143,9.143,0,1,0,9.143,9.143A9.143,9.143,0,0,0,8.143-1Zm0,16.762a7.619,7.619,0,1,1,7.619-7.619A7.619,7.619,0,0,1,8.143,15.762Z" transform="translate(1 1)"/><path class="a" d="M152.143,84.333a.762.762,0,0,0-.762.762v4.571H149.1a.762.762,0,1,0,0,1.524h3.048a.762.762,0,0,0,.762-.762V85.095A.762.762,0,0,0,152.143,84.333Z" transform="translate(-143.001 -81.285)"/></g></g></svg>