<svg xmlns="http://www.w3.org/2000/svg" width="15.285" height="17.622" viewBox="0 0 15.285 17.622"><defs><style>.a{fill:#00b4f1;}</style></defs><g transform="translate(-4.424)"><g transform="translate(4.424 0)"><path class="a" d="M16.207,6.348a.743.743,0,0,0,.323-.9.944.944,0,0,0-.734-.537,7.708,7.708,0,0,0,.8-1.762A2.766,2.766,0,0,0,16.372.58,1.635,1.635,0,0,0,15.1,0a3.855,3.855,0,0,0-2.16,1.01,6.281,6.281,0,0,1-.695.476c-.16-.074-.382-.2-.6-.314A5.822,5.822,0,0,0,9.005.239,2.221,2.221,0,0,0,8,.465a1.227,1.227,0,0,0-.669,1.1,6.65,6.65,0,0,0,1.18,3.348.943.943,0,0,0-.663.491.737.737,0,0,0,.3.933C6.518,7.9,4.424,10.93,4.424,12.53c0,3.046,3.072,5.093,7.643,5.093s7.643-2.048,7.643-5.093C19.71,10.92,17.764,7.926,16.207,6.348ZM8.824,1.495A.574.574,0,0,1,9,1.469a4.883,4.883,0,0,1,1.835.73,6.531,6.531,0,0,0,.993.482,1.272,1.272,0,0,0,.4.063h0a3,3,0,0,0,1.694-.818,3.809,3.809,0,0,1,1.166-.7.264.264,0,0,1,.081.073c.578.667-.5,3.081-1.1,3.585A13.031,13.031,0,0,1,12.315,5a13.83,13.83,0,0,1-2.164-.2C9.568,4.248,8.6,2.045,8.824,1.495Zm3.243,14.9c-2.846,0-6.168-1.011-6.168-3.863,0-1.283,2.28-4.549,3.754-5.729.245.039.5.071.745.1.162.02.326.036.489.048l.057.006c.121.009.24.015.357.021a16.876,16.876,0,0,0,3.445-.156c1.445,1.27,3.489,4.392,3.489,5.712C18.235,15.381,14.914,16.392,12.067,16.392Z" transform="translate(-4.424 0)"/><path class="a" d="M16.462,19.872a1.667,1.667,0,0,0-.487-.4,2.492,2.492,0,0,0-.859-.263q-.867-.131-.867-.534a.35.35,0,0,1,.14-.265.586.586,0,0,1,.4-.125,1.4,1.4,0,0,1,.313.031,1.019,1.019,0,0,1,.245.09.94.94,0,0,1,.211.149,2.832,2.832,0,0,1,.2.208h.873v-1.3h-.868v.186a1.461,1.461,0,0,0-.346-.149v-.47h-.868v.409a1.507,1.507,0,0,0-.467.145,1.384,1.384,0,0,0-.372.273,1.179,1.179,0,0,0-.331.821,1.539,1.539,0,0,0,.053.368,1,1,0,0,0,.222.405,1.659,1.659,0,0,0,.486.366,2.684,2.684,0,0,0,.842.248,3,3,0,0,1,.3.064,1.3,1.3,0,0,1,.279.108.7.7,0,0,1,.208.164.339.339,0,0,1,.08.227.288.288,0,0,1-.155.251.736.736,0,0,1-.39.1,1.66,1.66,0,0,1-.318-.028.993.993,0,0,1-.255-.086,1.238,1.238,0,0,1-.222-.149,1.92,1.92,0,0,1-.219-.213h-.868v1.3h.868v-.194c.041.021.083.041.127.059s.087.037.132.058v.508h.868v-.388a1.584,1.584,0,0,0,.517-.117,1.371,1.371,0,0,0,.412-.26,1.192,1.192,0,0,0,.272-.374,1.079,1.079,0,0,0,.1-.461,1.545,1.545,0,0,0-.046-.338A1.07,1.07,0,0,0,16.462,19.872Z" transform="translate(-7.12 -7.653)"/></g></g></svg>