<svg width="15" height="18" viewBox="0 0 15 18" fill="none" xmlns="http://www.w3.org/2000/svg">
<path d="M13.6698 8.2C13.4398 7.9 13.1598 7.64 12.8998 7.38C12.2298 6.78 11.4698 6.35 10.8298 5.72C9.33982 4.26 9.00982 1.85 9.95982 0C9.00982 0.23 8.17982 0.75 7.46982 1.32C4.87982 3.4 3.85981 7.07 5.07981 10.22C5.11981 10.32 5.15981 10.42 5.15981 10.55C5.15981 10.77 5.00982 10.97 4.80982 11.05C4.57982 11.15 4.33982 11.09 4.14982 10.93C4.08982 10.88 4.04982 10.83 4.00982 10.76C2.87982 9.33 2.69982 7.28 3.45982 5.64C1.78982 7 0.879815 9.3 1.00982 11.47C1.06982 11.97 1.12982 12.47 1.29982 12.97C1.43982 13.57 1.70982 14.17 2.00982 14.7C3.08982 16.43 4.95982 17.67 6.96982 17.92C9.10982 18.19 11.3998 17.8 13.0398 16.32C14.8698 14.66 15.5098 12 14.5698 9.72L14.4398 9.46C14.2298 9 13.6698 8.2 13.6698 8.2ZM10.5098 14.5C10.2298 14.74 9.76981 15 9.40981 15.1C8.28981 15.5 7.16982 14.94 6.50982 14.28C7.69982 14 8.40981 13.12 8.61981 12.23C8.78981 11.43 8.46982 10.77 8.33982 10C8.21982 9.26 8.23982 8.63 8.50982 7.94C8.69982 8.32 8.89982 8.7 9.13982 9C9.90981 10 11.1198 10.44 11.3798 11.8C11.4198 11.94 11.4398 12.08 11.4398 12.23C11.4698 13.05 11.1098 13.95 10.5098 14.5Z" fill="#F33D44"/>
</svg>
