<?xml version="1.0" encoding="utf-8"?>
<!-- Generator: Adobe Illustrator 18.1.1, SVG Export Plug-In . SVG Version: 6.00 Build 0)  -->
<svg version="1.1" id="Layer_1" xmlns="http://www.w3.org/2000/svg" xmlns:xlink="http://www.w3.org/1999/xlink" x="0px" y="0px"
	 viewBox="0 0 56.7 56.7" enable-background="new 0 0 56.7 56.7" xml:space="preserve">
<g>
	<path fill="#FFFFFF" d="M33.2,17.1c0.6,0.6,1.4,0.9,2.2,0.9s1.6-0.3,2.2-0.9c0.6-0.6,0.9-1.4,0.9-2.2c0-0.8-0.3-1.6-0.9-2.2
		c-0.6-0.6-1.4-0.9-2.2-0.9s-1.6,0.3-2.2,0.9C32,13.9,32,15.9,33.2,17.1z M34.6,14c0.2-0.2,0.5-0.4,0.8-0.4c0.3,0,0.6,0.1,0.8,0.4
		c0.2,0.2,0.4,0.5,0.4,0.8c0,0.3-0.1,0.6-0.4,0.8c-0.5,0.5-1.2,0.5-1.7,0C34.1,15.2,34.1,14.5,34.6,14z"/>
	<path fill="#FFFFFF" d="M53.6,56.7H1c-0.5,0-1-0.4-1-1V25c0-0.5,0.4-1,1-1h52.6c0.5,0,1,0.4,1,1v30.7
		C54.6,56.3,54.2,56.7,53.6,56.7z M2,54.7h50.7V25.9H2V54.7z"/>
	<path fill="#FFFFFF" d="M12.1,24L34,2.1c0.1-0.1,0.2-0.2,0.4-0.2c0.1,0,0.3,0.1,0.4,0.2l0.4,0.4L13.6,24h2.9L34.1,6.4
		c0.1-0.1,0.2-0.1,0.3-0.1l0,0l9.6,9.6c0,0,0,0.2-0.1,0.3L36.1,24h2.8l6.4-6.4c0.4-0.4,0.6-0.9,0.7-1.5c0-0.6-0.2-1.2-0.6-1.6
		l-9.6-9.6c-0.1,0-0.1-0.1-0.2-0.1l0.9-0.9l11.7,11.7c0.2,0.2,0.2,0.6,0,0.8L40.5,24h2.8l6.3-6.3c1-1,1-2.6,0-3.5L37.9,2.5l0.4-0.4
		c0.1-0.1,0.2-0.2,0.4-0.2c0.1,0,0.3,0.1,0.4,0.2l13.4,13.4c0.1,0.1,0.2,0.2,0.2,0.4c0,0.1-0.1,0.3-0.2,0.4L44.8,24h2.8l6.3-6.3
		c0.5-0.5,0.7-1.1,0.7-1.8c0-0.7-0.3-1.3-0.7-1.8L40.5,0.7c-0.9-0.9-2.6-0.9-3.5,0l-0.4,0.4l-0.4-0.4c-0.9-0.9-2.6-0.9-3.5,0L9.3,24
		H12.1z"/>
	<path fill="#FFFFFF" d="M55.4,46.8H38.2c-0.5,0-1-0.4-1-1V35.1c0-0.5,0.4-1,1-1h17.2c0.5,0,1,0.4,1,1v10.8
		C56.3,46.4,55.9,46.8,55.4,46.8z M39.2,44.8h15.2V36H39.2V44.8z"/>
	<path fill="#FFFFFF" d="M51.4,30.5h-1.3c-0.5,0-1-0.4-1-1c0-0.5,0.4-1,1-1h1.3c0.5,0,1,0.4,1,1C52.3,30,51.9,30.5,51.4,30.5z
		 M46.4,30.5h-1.3c-0.5,0-1-0.4-1-1c0-0.5,0.4-1,1-1h1.3c0.5,0,1,0.4,1,1C47.4,30,47,30.5,46.4,30.5z M41.5,30.5h-1.3
		c-0.5,0-1-0.4-1-1c0-0.5,0.4-1,1-1h1.3c0.5,0,1,0.4,1,1C42.5,30,42.1,30.5,41.5,30.5z M36.6,30.5h-1.3c-0.5,0-1-0.4-1-1
		c0-0.5,0.4-1,1-1h1.3c0.5,0,1,0.4,1,1C37.6,30,37.2,30.5,36.6,30.5z M31.7,30.5h-1.3c-0.5,0-1-0.4-1-1c0-0.5,0.4-1,1-1h1.3
		c0.5,0,1,0.4,1,1C32.7,30,32.3,30.5,31.7,30.5z M26.8,30.5h-1.3c-0.5,0-1-0.4-1-1c0-0.5,0.4-1,1-1h1.3c0.5,0,1,0.4,1,1
		C27.8,30,27.4,30.5,26.8,30.5z M21.9,30.5h-1.3c-0.5,0-1-0.4-1-1c0-0.5,0.4-1,1-1h1.3c0.5,0,1,0.4,1,1C22.9,30,22.5,30.5,21.9,30.5
		z M17,30.5h-1.3c-0.5,0-1-0.4-1-1c0-0.5,0.4-1,1-1H17c0.5,0,1,0.4,1,1C18,30,17.6,30.5,17,30.5z M12.1,30.5h-1.3c-0.5,0-1-0.4-1-1
		c0-0.5,0.4-1,1-1h1.3c0.5,0,1,0.4,1,1C13.1,30,12.7,30.5,12.1,30.5z M7.2,30.5H5.9c-0.5,0-1-0.4-1-1c0-0.5,0.4-1,1-1h1.3
		c0.5,0,1,0.4,1,1C8.2,30,7.7,30.5,7.2,30.5z M2.3,30.5H1c-0.5,0-1-0.4-1-1c0-0.5,0.4-1,1-1h1.3c0.5,0,1,0.4,1,1
		C3.3,30,2.8,30.5,2.3,30.5z"/>
	<path fill="#FFFFFF" d="M51.4,52.8h-1.3c-0.5,0-1-0.4-1-1c0-0.5,0.4-1,1-1h1.3c0.5,0,1,0.4,1,1C52.3,52.3,51.9,52.8,51.4,52.8z
		 M46.4,52.8h-1.3c-0.5,0-1-0.4-1-1c0-0.5,0.4-1,1-1h1.3c0.5,0,1,0.4,1,1C47.4,52.3,47,52.8,46.4,52.8z M41.5,52.8h-1.3
		c-0.5,0-1-0.4-1-1c0-0.5,0.4-1,1-1h1.3c0.5,0,1,0.4,1,1C42.5,52.3,42.1,52.8,41.5,52.8z M36.6,52.8h-1.3c-0.5,0-1-0.4-1-1
		c0-0.5,0.4-1,1-1h1.3c0.5,0,1,0.4,1,1C37.6,52.3,37.2,52.8,36.6,52.8z M31.7,52.8h-1.3c-0.5,0-1-0.4-1-1c0-0.5,0.4-1,1-1h1.3
		c0.5,0,1,0.4,1,1C32.7,52.3,32.3,52.8,31.7,52.8z M26.8,52.8h-1.3c-0.5,0-1-0.4-1-1c0-0.5,0.4-1,1-1h1.3c0.5,0,1,0.4,1,1
		C27.8,52.3,27.4,52.8,26.8,52.8z M21.9,52.8h-1.3c-0.5,0-1-0.4-1-1c0-0.5,0.4-1,1-1h1.3c0.5,0,1,0.4,1,1
		C22.9,52.3,22.5,52.8,21.9,52.8z M17,52.8h-1.3c-0.5,0-1-0.4-1-1c0-0.5,0.4-1,1-1H17c0.5,0,1,0.4,1,1C18,52.3,17.6,52.8,17,52.8z
		 M12.1,52.8h-1.3c-0.5,0-1-0.4-1-1c0-0.5,0.4-1,1-1h1.3c0.5,0,1,0.4,1,1C13.1,52.3,12.7,52.8,12.1,52.8z M7.2,52.8H5.9
		c-0.5,0-1-0.4-1-1c0-0.5,0.4-1,1-1h1.3c0.5,0,1,0.4,1,1C8.2,52.3,7.7,52.8,7.2,52.8z M2.3,52.8H1c-0.5,0-1-0.4-1-1c0-0.5,0.4-1,1-1
		h1.3c0.5,0,1,0.4,1,1C3.3,52.3,2.8,52.8,2.3,52.8z"/>
	<path fill="#FFFFFF" d="M44.4,43.7c-1.8,0-3.3-1.5-3.3-3.3s1.5-3.3,3.3-3.3c1.8,0,3.3,1.5,3.3,3.3S46.2,43.7,44.4,43.7z M44.4,39.1
		c-0.7,0-1.3,0.6-1.3,1.3c0,0.7,0.6,1.3,1.3,1.3c0.7,0,1.3-0.6,1.3-1.3C45.7,39.7,45.1,39.1,44.4,39.1z"/>
</g>
</svg>
