<?xml version="1.0" encoding="utf-8"?>
<!-- Generator: Adobe Illustrator 18.1.1, SVG Export Plug-In . SVG Version: 6.00 Build 0)  -->
<svg version="1.1" id="Layer_1" xmlns="http://www.w3.org/2000/svg" xmlns:xlink="http://www.w3.org/1999/xlink" x="0px" y="0px"
	 viewBox="0 0 45.3 68" enable-background="new 0 0 45.3 68" xml:space="preserve">
<g>
	<path fill="#FFFFFF" d="M45.4,10.4c0-0.3-0.1-0.6-0.3-0.8C44.7,9.2,36.1,0,23.3,0C10.4,0,1.8,9.2,1.4,9.6c-0.2,0.2-0.3,0.5-0.3,0.8
		c-0.2,10,16.3,20.3,20.6,22.9v3.2c-8,0.8-14.2,7.6-14.2,15.7c0,8.7,7.1,15.8,15.8,15.8c8.7,0,15.8-7.1,15.8-15.8
		c0-8.2-6.3-15-14.2-15.7v-3.2C29.1,30.8,45.6,20.4,45.4,10.4z M43.1,10.9C42.7,18.7,30,27.3,24.8,30.5v-0.1
		c6.4-11.9,9.1-22,9.8-25.3C39.1,7.2,42.1,10,43.1,10.9z M23.3,2.4c3.4,0,6.5,0.7,9.2,1.8c-0.3,1.1-0.9,3.9-2.2,7.6
		c-4.1-2.7-9.9-2.7-14.1,0C15,8,14.3,5.3,14.1,4.1C16.8,3.1,19.9,2.4,23.3,2.4z M3.5,10.9c0.9-0.9,4-3.7,8.4-5.8
		c0.8,3.3,3.4,13.4,9.8,25.3v0.1C16.5,27.3,3.8,18.7,3.5,10.9z M36.7,52.2c0,7.4-6,13.5-13.5,13.5s-13.5-6-13.5-13.5
		c0-7.4,6-13.5,13.5-13.5S36.7,44.8,36.7,52.2z M23.3,28.3C20.5,23,18.5,18.1,17,14.1c3.5-2.7,8.9-2.7,12.5,0
		C28,18.1,26,23,23.3,28.3z"/>
	<path fill="#FFFFFF" d="M32.6,47.7l-5.4-0.8L24.7,42c-0.3-0.5-0.8-0.9-1.4-0.9c-0.6,0-1.1,0.3-1.4,0.9l-2.4,4.9L14,47.7
		c-0.6,0.1-1.1,0.5-1.3,1.1c-0.2,0.6,0,1.2,0.4,1.6l3.9,3.8l-0.9,5.4c-0.1,0.6,0.1,1.2,0.6,1.5c0.5,0.4,1.1,0.4,1.7,0.1l4.9-2.6
		l4.9,2.6c0.2,0.1,0.5,0.2,0.7,0.2c0.3,0,0.7-0.1,0.9-0.3c0.5-0.3,0.7-0.9,0.6-1.5l-0.9-5.4l3.9-3.8c0.4-0.4,0.6-1,0.4-1.6
		C33.6,48.2,33.1,47.8,32.6,47.7z M26.7,52.5c-0.4,0.4-0.5,0.9-0.5,1.4l0.5,3.1L24,55.6c-0.5-0.2-1-0.2-1.5,0L19.7,57l0.5-3.1
		c0.1-0.5-0.1-1-0.4-1.4l-2.3-2.2l3.1-0.4c0.5-0.1,1-0.4,1.2-0.9l1.4-2.8l1.4,2.8c0.2,0.5,0.7,0.8,1.2,0.9l3.1,0.4L26.7,52.5z"/>
</g>
</svg>
