<?xml version="1.0" encoding="utf-8"?>
<!-- Generator: Adobe Illustrator 18.1.1, SVG Export Plug-In . SVG Version: 6.00 Build 0)  -->
<svg version="1.1" id="Layer_1" xmlns="http://www.w3.org/2000/svg" xmlns:xlink="http://www.w3.org/1999/xlink" x="0px" y="0px"
	 viewBox="0 0 65.2 56.7" enable-background="new 0 0 65.2 56.7" xml:space="preserve">
<g>
	<path fill="#FFFFFF" d="M38.4,30.8c-2.6,0-4.7-2.1-4.7-4.7c0-2.6,2.1-4.7,4.7-4.7c2.6,0,4.7,2.1,4.7,4.7
		C43.1,28.7,41,30.8,38.4,30.8z M38.4,23.6c-1.3,0-2.4,1.1-2.4,2.4c0,1.3,1.1,2.4,2.4,2.4c1.3,0,2.4-1.1,2.4-2.4
		C40.8,24.7,39.7,23.6,38.4,23.6z"/>
	<path fill="#FFFFFF" d="M51.1,8.2h-36c-3.3,0-6,2.7-6,6.1v1.3h2.3v-1.3c0-2.1,1.7-3.7,3.7-3.7h36c2.1,0,3.8,1.7,3.8,3.7v27.1
		c0,2.1-1.7,3.7-3.8,3.7h-1.3v2.3h1.3c3.3,0,6-2.7,6-6V14.2C57.1,10.9,54.4,8.2,51.1,8.2z"/>
	<path fill="#FFFFFF" d="M58.4,0.8h-36c-3.3,0-6,2.7-6,6.1v1.3h2.3V6.9c0-2.1,1.7-3.8,3.7-3.8h36c2.1,0,3.7,1.7,3.7,3.8v27.1
		c0,2.1-1.7,3.7-3.7,3.7h-1.3V40h1.3c3.3,0,6-2.7,6-6.1V6.9C64.5,3.5,61.8,0.8,58.4,0.8z"/>
	<path fill="#FFFFFF" d="M26.4,39.9h-9.8c-2,0-3.7-1.6-3.7-3.7c0-1.7,1.2-3.2,2.8-3.6c0-2.8,2.3-5,5-5c2.1,0,3.8,1.2,4.6,3.1
		c0.3-0.1,0.7-0.1,1-0.1c2.6,0,4.6,2.1,4.6,4.6C31,37.8,29,39.9,26.4,39.9z M16.6,34.8c-0.8,0-1.4,0.6-1.4,1.4
		c0,0.8,0.6,1.4,1.4,1.4h9.8c1.3,0,2.3-1.1,2.3-2.3s-1.1-2.3-2.3-2.3c-0.4,0-0.8,0.1-1.2,0.4c-0.3,0.2-0.8,0.2-1.1,0.1
		c-0.4-0.2-0.6-0.5-0.6-0.9c-0.1-1.4-1.3-2.4-2.7-2.4c-1.5,0-2.7,1.2-2.7,2.7c0,0.2,0,0.5,0.1,0.7c0.1,0.4,0,0.8-0.2,1.1
		c-0.3,0.3-0.7,0.4-1,0.4C16.8,34.9,16.7,34.8,16.6,34.8z"/>
	<path fill="#FFFFFF" d="M43.7,15.5h-36c-3.3,0-6,2.7-6,6v2.2v6.9v8.1l0,0v9.8c0,3.3,2.7,6,6,6h36c3.3,0,6-2.7,6-6V21.6
		C49.8,18.2,47.1,15.5,43.7,15.5z M4,24.3c0.3-0.2,0.6-0.3,1-0.3c1,0,1.7,0.7,1.8,1.7c0,0.4,0.3,0.7,0.6,0.9
		c0.4,0.2,0.8,0.2,1.1-0.1c0.3-0.2,0.5-0.2,0.8-0.2c0.2,0,0.4,0,0.6,0.1c0.6,0.2,1,0.8,1,1.5c0,0.9-0.7,1.6-1.6,1.6H7.9H4V24.3z
		 M4,31.8h2.3L4,35.2V31.8z M47.5,48.6c0,2.1-1.7,3.8-3.7,3.8H25.8l12.6-14.5l9.1,10V48.6z M47.5,44.4l-8.3-9.1
		C39,35.1,38.7,35,38.4,35c-0.3,0-0.6,0.1-0.9,0.4L30,44l-2.6-4.2c-0.3,0.1-0.7,0.1-1,0.1h-1.6l3.7,5.9l-5.7,6.6h-15
		c-2.1,0-3.7-1.7-3.7-3.8v-9.4l5.1-7.4h0.3c2.1,0,3.9-1.7,3.9-3.9c0-0.6-0.1-1.1-0.4-1.6l1.8-2.6l3,4.9c0.6-0.5,1.4-0.8,2.2-0.9
		L15.8,21c-0.2-0.3-0.6-0.5-0.9-0.5c-0.4,0-0.8,0.2-1,0.5l-2.5,3.7c-0.6-0.3-1.2-0.5-1.9-0.5c-0.2,0-0.5,0-0.7,0.1
		c-0.7-1.4-2.1-2.4-3.7-2.4c-0.3,0-0.7,0.1-1,0.1v-0.3c0-2.1,1.7-3.7,3.7-3.7h36c2.1,0,3.7,1.7,3.7,3.7V44.4z"/>
</g>
</svg>
