<svg width="168" height="154" viewBox="0 0 168 154" fill="none" xmlns="http://www.w3.org/2000/svg">
<g filter="url(#filter0_dddd)">
<mask id="path-1-outside-1" maskUnits="userSpaceOnUse" x="69" y="70" width="30" height="30" fill="black">
<rect fill="white" x="69" y="70" width="30" height="30"/>
<path fill-rule="evenodd" clip-rule="evenodd" d="M89.7255 73.2074C89.6634 73.3121 89.6102 73.4195 89.5658 73.5286C86.1236 72.7609 82.4625 74.2275 80.5808 77.4001L78.8016 80.3997C77.6889 82.2757 76.0661 82.7876 74.6659 83.2293C73.6034 83.5645 72.669 83.8592 72.1829 84.6788C71.1748 86.3786 74.3825 89.9144 80.6055 93.4117C86.8285 96.9091 91.5781 97.8452 92.5863 96.1455C93.0724 95.3259 92.8674 94.3909 92.6344 93.3276C92.3272 91.9264 91.9713 90.3024 93.084 88.4263L94.8631 85.4268C96.7448 82.2542 96.2191 78.4345 93.8149 75.9166C93.8899 75.8246 93.9588 75.7262 94.0209 75.6214C94.7057 74.4668 94.2993 72.9904 93.1132 72.3238C91.927 71.6572 90.4103 72.0528 89.7255 73.2074ZM83.109 97.2183C81.9275 96.6876 80.746 96.1569 79.4198 95.4116C78.0936 94.6662 77.0307 93.9356 75.9678 93.2049C75.911 94.9061 76.7035 96.5513 78.2337 97.4113C79.764 98.2713 81.7259 98.1741 83.109 97.2183Z"/>
</mask>
<path d="M89.5658 73.5286L89.1305 75.4807C90.0835 75.6932 91.0507 75.1865 91.4185 74.282L89.5658 73.5286ZM89.7255 73.2074L88.0053 72.1871L88.0053 72.1872L89.7255 73.2074ZM80.5808 77.4001L78.8606 76.3798L78.8606 76.3798L80.5808 77.4001ZM78.8016 80.3997L80.5218 81.42L80.5218 81.42L78.8016 80.3997ZM74.6659 83.2293L75.2675 85.1367L75.2676 85.1367L74.6659 83.2293ZM72.1829 84.6788L70.4627 83.6586L70.4627 83.6586L72.1829 84.6788ZM80.6055 93.4117L79.6256 95.1553L79.6256 95.1553L80.6055 93.4117ZM92.5863 96.1455L94.3064 97.1658L94.3064 97.1658L92.5863 96.1455ZM92.6344 93.3276L90.6807 93.7558L90.6807 93.7558L92.6344 93.3276ZM93.084 88.4263L91.3638 87.4061L91.3638 87.4061L93.084 88.4263ZM94.8631 85.4268L93.1429 84.4065L93.1429 84.4065L94.8631 85.4268ZM93.8149 75.9166L92.2641 74.6537C91.6276 75.4354 91.6723 76.5686 92.3684 77.2978L93.8149 75.9166ZM94.0209 75.6214L92.3007 74.6012L92.3007 74.6012L94.0209 75.6214ZM93.1132 72.3238L94.093 70.5803L94.093 70.5803L93.1132 72.3238ZM83.109 97.2183L84.2461 98.8636C84.8399 98.4532 85.1665 97.7547 85.1007 97.0359C85.0349 96.3172 84.5869 95.6896 83.9284 95.3938L83.109 97.2183ZM75.9678 93.2049L77.1008 91.5568C76.4986 91.1428 75.7186 91.0903 75.0664 91.4196C74.4141 91.749 73.9933 92.4078 73.9689 93.1382L75.9678 93.2049ZM91.4185 74.282C91.4254 74.265 91.4343 74.2468 91.4456 74.2277L88.0053 72.1872C87.8924 72.3774 87.795 72.5739 87.7132 72.7752L91.4185 74.282ZM82.3009 78.4204C83.727 76.0161 86.5049 74.8951 89.1305 75.4807L90.0012 71.5766C85.7423 70.6267 81.198 72.4389 78.8606 76.3798L82.3009 78.4204ZM80.5218 81.42L82.3009 78.4204L78.8606 76.3798L77.0815 79.3794L80.5218 81.42ZM75.2676 85.1367C76.67 84.6943 78.9879 84.0061 80.5218 81.42L77.0815 79.3794C76.3899 80.5453 75.4623 80.881 74.0642 81.322L75.2676 85.1367ZM73.9031 85.6991C73.9046 85.6965 73.9083 85.6893 73.9292 85.6713C73.9546 85.6495 74.0094 85.609 74.1175 85.5538C74.3676 85.4262 74.6965 85.3168 75.2675 85.1367L74.0642 81.322C73.2095 81.5916 71.4122 82.0577 70.4627 83.6586L73.9031 85.6991ZM81.5853 91.6682C78.5716 89.9745 76.4 88.3308 75.134 86.9953C74.4931 86.3192 74.1743 85.8157 74.0492 85.5103C73.9256 85.2087 74.0903 85.3836 73.9031 85.6991L70.4627 83.6586C69.7715 84.824 69.9591 86.0783 70.3479 87.027C70.7351 87.9718 71.4182 88.8896 72.231 89.7471C73.8725 91.4788 76.4163 93.3516 79.6256 95.1553L81.5853 91.6682ZM90.8661 95.1252C91.0442 94.8249 91.2489 94.8954 90.8844 94.9469C90.5277 94.9972 89.9052 94.9769 88.98 94.774C87.1496 94.3725 84.5977 93.3612 81.5853 91.6682L79.6256 95.1553C82.8363 96.9596 85.7707 98.1651 88.1229 98.6811C89.289 98.9369 90.4318 99.0505 91.4437 98.9076C92.4478 98.7658 93.6243 98.3159 94.3064 97.1658L90.8661 95.1252ZM90.6807 93.7558C90.8066 94.3299 90.8708 94.6501 90.8817 94.9114C90.8864 95.0221 90.8781 95.0795 90.8733 95.103C90.8696 95.1207 90.8674 95.123 90.8661 95.1252L94.3064 97.1658C95.2687 95.5434 94.7752 93.7533 94.588 92.8994L90.6807 93.7558ZM91.3638 87.4061C89.8198 90.0092 90.3705 92.3404 90.6807 93.7558L94.588 92.8994C94.284 91.5124 94.1227 90.5955 94.8042 89.4466L91.3638 87.4061ZM93.1429 84.4065L91.3638 87.4061L94.8042 89.4466L96.5833 86.447L93.1429 84.4065ZM92.3684 77.2978C94.1627 79.1769 94.5603 82.0168 93.1429 84.4065L96.5833 86.447C98.9294 82.4915 98.2755 77.6921 95.2615 74.5355L92.3684 77.2978ZM92.3007 74.6012C92.2894 74.6203 92.2771 74.6377 92.2641 74.6537L95.3658 77.1795C95.5026 77.0115 95.6282 76.832 95.7411 76.6417L92.3007 74.6012ZM92.1333 74.0673C92.3636 74.1968 92.3994 74.4349 92.3007 74.6012L95.7411 76.6417C97.0121 74.4988 96.235 71.7841 94.093 70.5803L92.1333 74.0673ZM91.4456 74.2277C91.5638 74.0285 91.8728 73.9209 92.1333 74.0673L94.093 70.5803C91.9813 69.3935 89.2568 70.0771 88.0053 72.1871L91.4456 74.2277ZM78.4399 97.1551C79.8541 97.9499 81.1117 98.5136 82.2895 99.0427L83.9284 95.3938C82.7433 94.8615 81.6379 94.3639 80.3997 93.668L78.4399 97.1551ZM74.8348 94.8531C75.8946 95.5816 77.0255 96.3602 78.4399 97.1551L80.3997 93.668C79.1617 92.9723 78.1668 92.2896 77.1008 91.5568L74.8348 94.8531ZM79.2136 95.6678C78.4167 95.2199 77.9315 94.3259 77.9667 93.2717L73.9689 93.1382C73.8905 95.4863 74.9902 97.8826 77.2539 99.1548L79.2136 95.6678ZM81.9719 95.5729C81.2279 96.0871 80.0882 96.1593 79.2136 95.6678L77.2539 99.1548C79.4397 100.383 82.224 100.261 84.2461 98.8636L81.9719 95.5729Z" fill="#FFDBFD" mask="url(#path-1-outside-1)"/>
</g>
<defs>
<filter id="filter0_dddd" x="-0.000183105" y="0.000488281" width="168" height="170" filterUnits="userSpaceOnUse" color-interpolation-filters="sRGB">
<feFlood flood-opacity="0" result="BackgroundImageFix"/>
<feColorMatrix in="SourceAlpha" type="matrix" values="0 0 0 0 0 0 0 0 0 0 0 0 0 0 0 0 0 0 127 0"/>
<feOffset/>
<feGaussianBlur stdDeviation="2.5"/>
<feColorMatrix type="matrix" values="0 0 0 0 0.980392 0 0 0 0 0 0 0 0 0 1 0 0 0 1 0"/>
<feBlend mode="normal" in2="BackgroundImageFix" result="effect1_dropShadow"/>
<feColorMatrix in="SourceAlpha" type="matrix" values="0 0 0 0 0 0 0 0 0 0 0 0 0 0 0 0 0 0 127 0"/>
<feOffset/>
<feGaussianBlur stdDeviation="35"/>
<feColorMatrix type="matrix" values="0 0 0 0 0.980392 0 0 0 0 0 0 0 0 0 1 0 0 0 1 0"/>
<feBlend mode="normal" in2="effect1_dropShadow" result="effect2_dropShadow"/>
<feColorMatrix in="SourceAlpha" type="matrix" values="0 0 0 0 0 0 0 0 0 0 0 0 0 0 0 0 0 0 127 0"/>
<feOffset/>
<feGaussianBlur stdDeviation="5"/>
<feColorMatrix type="matrix" values="0 0 0 0 0.980392 0 0 0 0 0 0 0 0 0 1 0 0 0 1 0"/>
<feBlend mode="normal" in2="effect2_dropShadow" result="effect3_dropShadow"/>
<feColorMatrix in="SourceAlpha" type="matrix" values="0 0 0 0 0 0 0 0 0 0 0 0 0 0 0 0 0 0 127 0"/>
<feOffset/>
<feGaussianBlur stdDeviation="2"/>
<feColorMatrix type="matrix" values="0 0 0 0 0.980392 0 0 0 0 0 0 0 0 0 1 0 0 0 1 0"/>
<feBlend mode="normal" in2="effect3_dropShadow" result="effect4_dropShadow"/>
<feBlend mode="normal" in="SourceGraphic" in2="effect4_dropShadow" result="shape"/>
</filter>
</defs>
</svg>