<?xml version="1.0" encoding="utf-8"?>
<!-- Generator: Adobe Illustrator 18.1.1, SVG Export Plug-In . SVG Version: 6.00 Build 0)  -->
<svg version="1.1" id="Layer_1" xmlns="http://www.w3.org/2000/svg" xmlns:xlink="http://www.w3.org/1999/xlink" x="0px" y="0px"
	 viewBox="0 0 62.4 51" enable-background="new 0 0 62.4 51" xml:space="preserve">
<g>
	<path fill="#FFFFFF" d="M42,40.7c-0.3,0-0.6-0.1-0.8-0.4l-1.8-2.1l-2.7,0.6c-0.3,0.1-0.6,0-0.9-0.2c-0.3-0.2-0.4-0.5-0.5-0.8
		l-0.2-2.7l-2.5-1c-0.3-0.1-0.5-0.4-0.6-0.7c-0.1-0.3-0.1-0.6,0.1-0.9l1.4-2.3l-1.4-2.3c-0.2-0.3-0.2-0.6-0.1-0.9
		c0.1-0.3,0.3-0.5,0.6-0.7l2.5-1l0.2-2.7c0-0.3,0.2-0.6,0.5-0.8c0.3-0.2,0.6-0.3,0.9-0.2l2.7,0.6l1.8-2.1c0.4-0.5,1.2-0.5,1.7,0
		l1.8,2.1l2.7-0.6c0.3-0.1,0.6,0,0.9,0.2c0.3,0.2,0.4,0.5,0.5,0.8l0.2,2.7l2.5,1c0.3,0.1,0.5,0.4,0.6,0.7c0.1,0.3,0.1,0.6-0.1,0.9
		l-1.4,2.3l1.4,2.3c0.2,0.3,0.2,0.6,0.1,0.9c-0.1,0.3-0.3,0.5-0.6,0.7l-2.5,1l-0.2,2.7c0,0.3-0.2,0.6-0.5,0.8
		c-0.3,0.2-0.6,0.3-0.9,0.2l-2.7-0.6l-1.8,2.1C42.6,40.5,42.3,40.7,42,40.7z M39.8,35.9c0.3,0,0.6,0.1,0.8,0.4l1.4,1.6l1.4-1.6
		c0.3-0.3,0.7-0.5,1.1-0.4l2.1,0.5l0.2-2.1c0-0.4,0.3-0.8,0.7-0.9l2-0.8l-1.1-1.8c-0.2-0.3-0.2-0.8,0-1.1l1.1-1.8l-2-0.8
		c-0.4-0.2-0.6-0.5-0.7-0.9l-0.2-2.1l-2.1,0.5c-0.4,0.1-0.8,0-1.1-0.4L42,22.5l-1.4,1.6c-0.3,0.3-0.7,0.5-1.1,0.4l-2.1-0.5l-0.2,2.1
		c0,0.4-0.3,0.8-0.7,0.9l-2,0.8l1.1,1.8c0.2,0.3,0.2,0.8,0,1.1l-1.1,1.8l2,0.8c0.4,0.2,0.6,0.5,0.7,0.9l0.2,2.1l2.1-0.5
		C39.6,35.9,39.7,35.9,39.8,35.9z"/>
	<path fill="#FFFFFF" d="M45,38.3v8.9l-2.2-2.4c-0.2-0.2-0.5-0.3-0.8-0.3c-0.3,0-0.6,0.1-0.8,0.3l-2.2,2.4v-8.9l-2.2,0.5v11.1
		c0,0.4,0.3,0.8,0.7,1c0.4,0.2,0.9,0.1,1.2-0.3l3.3-3.5l3.3,3.5c0.2,0.2,0.5,0.3,0.8,0.3c0.1,0,0.3,0,0.4-0.1c0.4-0.2,0.7-0.6,0.7-1
		V38.8L45,38.3z"/>
	<path fill="#FFFFFF" d="M51.1,4.4H11.5c-3.1,0-5.7,2.6-5.7,5.7v26.3c0,3.1,2.5,5.7,5.7,5.7h25.3V40H11.5C9.6,40,8,38.4,8,36.5V10.1
		c0-1.9,1.6-3.5,3.5-3.5h39.6c1.9,0,3.5,1.6,3.5,3.5v26.3c0,1.9-1.6,3.5-3.5,3.5h-4v2.2h4c3.1,0,5.7-2.6,5.7-5.7V10.1
		C56.8,7,54.3,4.4,51.1,4.4z"/>
	<path fill="#FFFFFF" d="M52.2,0H10.5c-5,0-9.1,4.1-9.1,9.1v28.4c0,5,4.1,9.1,9.1,9.1h26.3v-2.2H10.5c-3.8,0-6.9-3.1-6.9-6.9V9.1
		c0-3.8,3.1-6.9,6.9-6.9h41.7c3.8,0,6.9,3.1,6.9,6.9v28.4c0,3.8-3.1,6.9-6.9,6.9h-5v2.2h5c5,0,9.1-4.1,9.1-9.1V9.1
		C61.3,4.1,57.2,0,52.2,0z"/>
	<path fill="#FFFFFF" d="M44.3,12.8h-26c-0.6,0-1.1-0.5-1.1-1.1c0-0.6,0.5-1.1,1.1-1.1h26c0.6,0,1.1,0.5,1.1,1.1
		C45.4,12.4,45,12.8,44.3,12.8z"/>
	<path fill="#FFFFFF" d="M49.1,18.3H13.6c-0.6,0-1.1-0.5-1.1-1.1c0-0.6,0.5-1.1,1.1-1.1h35.5c0.6,0,1.1,0.5,1.1,1.1
		C50.2,17.8,49.7,18.3,49.1,18.3z"/>
	<path fill="#FFFFFF" d="M31.3,23.8H13.6c-0.6,0-1.1-0.5-1.1-1.1c0-0.6,0.5-1.1,1.1-1.1h17.8c0.6,0,1.1,0.5,1.1,1.1
		C32.4,23.3,31.9,23.8,31.3,23.8z"/>
	<path fill="#FFFFFF" d="M24.2,30.9H13.6c-0.6,0-1.1-0.5-1.1-1.1c0-0.6,0.5-1.1,1.1-1.1h10.7c0.6,0,1.1,0.5,1.1,1.1
		C25.3,30.4,24.8,30.9,24.2,30.9z"/>
	<path fill="#FFFFFF" d="M24.2,36.4H13.6c-0.6,0-1.1-0.5-1.1-1.1c0-0.6,0.5-1.1,1.1-1.1h10.7c0.6,0,1.1,0.5,1.1,1.1
		C25.3,35.9,24.8,36.4,24.2,36.4z"/>
</g>
</svg>
