<?xml version="1.0" encoding="iso-8859-1"?>
<!-- Generator: Adobe Illustrator 19.0.0, SVG Export Plug-In . SVG Version: 6.00 Build 0)  -->
<svg xmlns="http://www.w3.org/2000/svg" xmlns:xlink="http://www.w3.org/1999/xlink" version="1.1" id="Capa_1" x="0px" y="0px" viewBox="0 0 431.5 431.5" style="enable-background:new 0 0 431.5 431.5;" xml:space="preserve" width="512px" height="512px">
<g>
	<g>
		<path d="M311.836,388.7l-89.6-313.2c-0.8-2.8-3.6-5.2-6.8-5.2c-3.2,0-6,2-6.8,5.2l-88.8,313.2c-0.8,2,0,4.4,1.2,6.4    s3.6,2.8,5.6,2.8h58.4v26.4c0,4,3.2,7.2,7.2,7.2h47.2c4,0,7.2-3.2,7.2-7.2v-26.4h58.4c2.4,0,4.4-1.2,5.6-2.8    C311.836,393.1,312.236,391.1,311.836,388.7z M291.436,368.7c-43.6-6.4-98.8-52.4-121.6-72.4c37.6-10.4,69.2-41.6,84-58.4    L291.436,368.7z M215.436,103.9l30.4,106.4c-23.2-11.6-42.4-35.2-48.4-42.8L215.436,103.9z M192.636,184.7    c10.8,12.4,29.6,32,52.4,41.6c-12.8,14.8-44,46.8-80,56.4L192.636,184.7z M239.436,383.9c-4,0-7.2,3.2-7.2,7.2v26.4h-32.8v-26.4    c0-4-3.2-7.2-7.2-7.2h-56l22.4-78.4c22.4,20.8,86,74.4,137.2,78.4H239.436z" fill="#FFFFFF"/>
	</g>
</g>
<g>
	<g>
		<path d="M252.236,25.9c-0.8-2.8-3.2-4.4-6-4.8l-16.4-2.4l-7.6-14.8c-2.4-5.2-10.4-5.2-12.8,0l-7.2,14.8l-16.4,2.4    c-2.8,0.4-4.8,2.4-6,4.8c-0.8,2.8,0,5.6,2,7.6l12,11.6l-2.8,16.4c-0.4,2.8,0.8,5.6,2.8,7.2c2.4,1.6,5.2,2,7.6,0.4l14.8-7.6    l14.8,7.6c1.2,0.4,2.4,0.8,3.2,0.8c1.6,0,2.8-0.4,4.4-1.2c2.4-1.6,3.2-4.4,2.8-7.2l-2.8-16.4l12-11.6    C252.236,31.5,253.036,28.7,252.236,25.9z M225.436,37.5c-1.6,1.6-2.4,4-2,6.4l0.8,5.6l-5.2-2.8c-1.2-0.4-2.4-0.8-3.2-0.8    s-2.4,0.4-3.2,0.8l-5.2,2.8l0.8-5.6c0.4-2.4-0.4-4.8-2-6.4l-4-4l5.6-0.8c2.4-0.4,4.4-2,5.6-4l2.4-5.2l2.4,5.2c1.2,2,3.2,3.6,5.6,4    l5.6,0.8L225.436,37.5z" fill="#FFFFFF"/>
	</g>
</g>
<g>
	<g>
		<polygon points="216.636,228.3 207.036,227.1 202.636,218.3 198.636,227.1 189.036,228.3 195.836,235.1 194.236,244.7     202.636,239.9 211.436,244.7 209.836,235.1   " fill="#FFFFFF"/>
	</g>
</g>
<g>
	<g>
		<polygon points="255.436,306.7 245.836,305.1 241.836,296.7 237.436,305.1 227.836,306.7 234.636,313.5 233.036,322.7     241.836,318.3 250.236,322.7 248.636,313.5   " fill="#FFFFFF"/>
	</g>
</g>
<g>
	<g>
		<polygon points="191.836,352.3 182.636,350.7 178.236,342.3 173.836,350.7 164.636,352.3 171.436,359.1 169.836,368.3     178.236,363.9 186.636,368.3 185.036,359.1   " fill="#FFFFFF"/>
	</g>
</g>
<g>
</g>
<g>
</g>
<g>
</g>
<g>
</g>
<g>
</g>
<g>
</g>
<g>
</g>
<g>
</g>
<g>
</g>
<g>
</g>
<g>
</g>
<g>
</g>
<g>
</g>
<g>
</g>
<g>
</g>
</svg>
