<?xml version="1.0" encoding="utf-8"?>
<!-- Generator: Adobe Illustrator 18.1.1, SVG Export Plug-In . SVG Version: 6.00 Build 0)  -->
<svg version="1.1" id="Layer_1" xmlns="http://www.w3.org/2000/svg" xmlns:xlink="http://www.w3.org/1999/xlink" x="0px" y="0px"
	 viewBox="0 0 141.73 141.73" enable-background="new 0 0 141.73 141.73" xml:space="preserve">
<g>
	<path fill="#FFFFFF" d="M116.14,123.59l-7.14-23.51c10.46-10.24,16.44-24.38,16.44-39.02c0-30.12-24.5-54.62-54.62-54.62
		c-0.98,0-2.03,0.03-3.22,0.1l-0.15,0.01C38.72,8.31,16.21,32.25,16.21,61.06c0,14.57,5.65,28.18,15.91,38.49l-6.09,24.06
		c-2.45,0.43-4.32,2.58-4.32,5.15c0,2.89,2.35,5.23,5.23,5.23h88.47c2.89,0,5.24-2.35,5.24-5.23
		C120.65,126.13,118.68,123.95,116.14,123.59z M66.4,87.8H45.26l7.34-14.67c0.3-0.6,0.27-1.33-0.09-1.91
		c-0.36-0.58-0.98-0.93-1.67-0.93h-0.1l9.25-15.71c0.35-0.6,0.36-1.36,0.01-1.97c-0.18-0.32-0.45-0.58-0.77-0.75l11.58-16.18
		c0.01-0.01,0.01-0.02,0.02-0.02c0,0.01,0.01,0.01,0.02,0.02l11.58,16.18c-0.32,0.17-0.59,0.43-0.77,0.75
		c-0.35,0.61-0.34,1.36,0.01,1.97l9.24,15.71h-0.1c-0.67,0-1.31,0.36-1.67,0.93c-0.36,0.58-0.39,1.29-0.09,1.91L96.4,87.8H75.26
		c-1.08,0-1.96,0.88-1.96,1.96v7.25h-4.95v-7.25C68.35,88.68,67.48,87.8,66.4,87.8z M106.57,97.01H77.22v-5.29H97.2
		c1.29,0,2.38-0.56,2.98-1.54c0.63-1.01,0.63-2.3,0.01-3.54l-6.21-12.42h0.38c1.08,0,1.96-0.88,1.96-1.96
		c0-0.45-0.16-0.89-0.41-1.19l-9.19-15.62c0.77-0.26,1.33-1,1.33-1.85c0-0.51-0.2-1-0.51-1.32L74.03,33.4
		c-0.79-1.11-1.96-1.75-3.2-1.75c-1.24,0-2.41,0.64-3.2,1.75L53.99,52.45c-0.43,0.6-0.49,1.38-0.15,2.04
		c0.23,0.46,0.63,0.79,1.09,0.95l-9.31,15.82c-0.36,0.6-0.36,1.36-0.01,1.97c0.35,0.61,1,0.99,1.7,0.99h0.36l-6.21,12.42
		c-0.62,1.23-0.61,2.53,0.01,3.54c0.61,0.98,1.69,1.54,2.98,1.54h19.98v5.29H35.09c-9.65-9.58-14.97-22.34-14.97-35.94
		c0-26.75,20.9-48.97,47.59-50.6l0.14-0.01c1.12-0.06,2.09-0.09,2.97-0.09c27.96,0,50.7,22.75,50.7,50.7
		C121.53,74.68,116.22,87.44,106.57,97.01z M66.4,100.93h8.87h29.91l6.86,22.6H30.1l5.72-22.6H66.4z M115.41,127.45
		c0.73,0,1.32,0.59,1.32,1.32c0,0.73-0.59,1.32-1.32,1.32H26.94c-0.73,0-1.32-0.59-1.32-1.32c0-0.73,0.59-1.32,1.32-1.32H115.41z"/>
	<path fill="#FFFFFF" d="M49.36,119.32H92.3c1.08,0,1.96-0.88,1.96-1.96v-10.44c0-1.08-0.88-1.96-1.96-1.96H49.36
		c-1.08,0-1.96,0.88-1.96,1.96v10.44C47.4,118.44,48.28,119.32,49.36,119.32z M51.32,115.4v-6.52h39.02v6.52H51.32z"/>
	<path fill="#FFFFFF" d="M49.36,24.92c-2.69,0-4.88,2.19-4.88,4.88c0,2.69,2.19,4.88,4.88,4.88c2.69,0,4.88-2.19,4.88-4.88
		C54.24,27.11,52.05,24.92,49.36,24.92z M50.32,29.8c0,0.53-0.43,0.96-0.96,0.96s-0.96-0.43-0.96-0.96s0.43-0.96,0.96-0.96
		S50.32,29.27,50.32,29.8z"/>
	<path fill="#FFFFFF" d="M67.56,18.55c-2.69,0-4.88,2.19-4.88,4.88c0,2.69,2.19,4.88,4.88,4.88c2.69,0,4.88-2.19,4.88-4.88
		C72.43,20.74,70.25,18.55,67.56,18.55z M68.52,23.42c0,0.53-0.43,0.96-0.96,0.96c-0.53,0-0.96-0.43-0.96-0.96
		c0-0.53,0.43-0.96,0.96-0.96C68.09,22.47,68.52,22.9,68.52,23.42z"/>
	<path fill="#FFFFFF" d="M33.98,53.96c0-2.69-2.19-4.88-4.88-4.88c-2.69,0-4.87,2.19-4.87,4.88c0,2.69,2.19,4.87,4.87,4.87
		C31.8,58.83,33.98,56.64,33.98,53.96z M28.15,53.96c0-0.53,0.43-0.96,0.96-0.96c0.53,0,0.96,0.43,0.96,0.96
		c0,0.53-0.43,0.96-0.96,0.96C28.58,54.91,28.15,54.48,28.15,53.96z"/>
	<path fill="#FFFFFF" d="M107.39,68.18c-2.69,0-4.88,2.19-4.88,4.88c0,2.69,2.19,4.88,4.88,4.88c2.69,0,4.88-2.19,4.88-4.88
		C112.27,70.36,110.08,68.18,107.39,68.18z M108.35,73.05c0,0.53-0.43,0.96-0.96,0.96c-0.53,0-0.96-0.43-0.96-0.96
		c0-0.53,0.43-0.96,0.96-0.96C107.92,72.09,108.35,72.52,108.35,73.05z"/>
	<path fill="#FFFFFF" d="M106.31,52.18c3.39,0,6.15-2.76,6.15-6.15c0-3.39-2.76-6.15-6.15-6.15c-3.39,0-6.15,2.76-6.15,6.15
		C100.16,49.42,102.92,52.18,106.31,52.18z M104.08,46.03c0-1.23,1-2.23,2.23-2.23c1.23,0,2.23,1,2.23,2.23c0,1.23-1,2.23-2.23,2.23
		C105.08,48.26,104.08,47.26,104.08,46.03z"/>
	<path fill="#FFFFFF" d="M88.33,25.49c-2.93,0-5.32,2.38-5.32,5.32c0,2.93,2.39,5.32,5.32,5.32c2.93,0,5.32-2.39,5.32-5.32
		C93.65,27.88,91.26,25.49,88.33,25.49z M89.73,30.81c0,0.77-0.63,1.4-1.4,1.4s-1.4-0.63-1.4-1.4c0-0.77,0.63-1.4,1.4-1.4
		S89.73,30.04,89.73,30.81z"/>
	<path fill="#FFFFFF" d="M98.69,53.92c-2.89,0-5.24,2.35-5.24,5.24c0,2.89,2.35,5.25,5.24,5.25c2.89,0,5.25-2.35,5.25-5.25
		C103.94,56.27,101.59,53.92,98.69,53.92z M100.02,59.16c0,0.73-0.6,1.33-1.33,1.33s-1.33-0.6-1.33-1.33c0-0.73,0.59-1.33,1.33-1.33
		S100.02,58.43,100.02,59.16z"/>
	<path fill="#FFFFFF" d="M33.3,69.12c-3.39,0-6.15,2.76-6.15,6.15s2.76,6.15,6.15,6.15c3.39,0,6.15-2.76,6.15-6.15
		S36.69,69.12,33.3,69.12z M35.53,75.27c0,1.23-1,2.23-2.23,2.23c-1.23,0-2.23-1-2.23-2.23s1-2.23,2.23-2.23
		C34.53,73.04,35.53,74.04,35.53,75.27z"/>
	<path fill="#FFFFFF" d="M44.79,39.88c-3.39,0-6.15,2.76-6.15,6.15c0,3.39,2.76,6.15,6.15,6.15c3.39,0,6.15-2.76,6.15-6.15
		C50.94,42.64,48.18,39.88,44.79,39.88z M47.02,46.03c0,1.23-1,2.23-2.23,2.23c-1.23,0-2.23-1-2.23-2.23c0-1.23,1-2.23,2.23-2.23
		C46.02,43.8,47.02,44.8,47.02,46.03z"/>
</g>
</svg>
