<?xml version="1.0" encoding="UTF-8" standalone="no"?>
<svg width="64px" height="64px" viewBox="0 0 64 64" version="1.1" xmlns="http://www.w3.org/2000/svg" xmlns:xlink="http://www.w3.org/1999/xlink">
    <!-- Generator: Sketch 39.1 (31720) - http://www.bohemiancoding.com/sketch -->
    <title>passport</title>
    <desc>Created with Sketch.</desc>
    <defs></defs>
    <g id="Welcome" stroke="none" stroke-width="1" fill="none" fill-rule="evenodd">
        <g id="Визы" transform="translate(-1179.000000, -285.000000)">
            <g id="passport" transform="translate(1179.000000, 285.000000)">
                <path d="M41.2219883,61.241 L24.2589942,55.054875 C21.3763743,54.003625 19.8900273,50.810125 20.9392281,47.92175 L36.1369201,6.085125 C37.1861209,3.196875 40.3733957,1.707625 43.2561404,2.758875 L60.2191345,8.945 C63.1017544,9.99625 64.5881014,13.18975 63.5389006,16.078125 L48.3410838,57.914875 C47.2920078,60.803125 44.1046082,62.292375 41.2219883,61.241 L41.2219883,61.241 Z" id="Shape" fill="#F2E7B8"></path>
                <path d="M36.1367953,6.08525 C37.1859961,3.197 40.373271,1.70775 43.2560156,2.759 L60.2190097,8.945125 C63.1016296,9.996375 64.5879766,13.189875 63.5387758,16.07825 L60.2143938,25.23 L32.8124133,15.237 L36.1367953,6.08525 Z" id="Shape" fill="#EA3F22"></path>
                <path d="M61.1641637,22.615125 L60.2143938,25.23 L56.9522651,24.04025 C56.5919688,23.908875 56.4060819,23.50975 56.5373255,23.14875 L57.0122729,21.841375 C57.1433918,21.480375 57.5418635,21.294125 57.9021598,21.425625 L61.1641637,22.615125 L61.1641637,22.615125 Z M53.9874308,19.997875 L33.7621832,12.622125 L32.8124133,15.237 L53.0375361,22.61275 C53.3978324,22.744125 53.7963041,22.557875 53.9275478,22.196875 L54.4024951,20.889625 C54.533614,20.5285 54.3478519,20.12925 53.9874308,19.997875 L53.9874308,19.997875 Z" id="Shape" fill="#841C00"></path>
                <path d="M44.495345,64 L2.77720078,64 C1.24332164,64 0,62.75425 0,61.217375 L0,2.782625 C0,1.24575 1.24332164,0 2.77720078,0 L44.495345,0 C47.5628538,0 50.0497466,2.491625 50.0497466,5.56525 L50.0497466,58.43475 C50.0497466,61.508375 47.5629786,64 44.495345,64 L44.495345,64 Z" id="Shape" fill="#5E5E5E"></path>
                <path d="M8.33160234,64 L2.77720078,64 C1.24332164,64 0,62.75425 0,61.217375 L0,2.782625 C0,1.24575 1.24332164,0 2.77720078,0 L8.33160234,0 L8.33160234,64 L8.33160234,64 Z" id="Shape" fill="#444444"></path>
                <path d="M29.1453255,38.9565 L29.1756413,38.9565 C36.8323119,38.9565 43.0615205,32.715125 43.0615205,25.0435 C43.0615205,17.371875 36.8323119,11.1305 29.1755166,11.1305 L29.1452008,11.1305 C21.4885302,11.1305 15.2593216,17.371875 15.2593216,25.0435 C15.2593216,32.715125 21.488655,38.9565 29.1453255,38.9565 L29.1453255,38.9565 Z M18.126347,26.43475 L23.6009045,26.43475 L23.6009045,33.39125 C23.6009045,33.872 23.6621598,34.33875 23.7770604,34.784 C20.7424873,33.098375 18.5763431,30.03075 18.126347,26.43475 L18.126347,26.43475 Z M29.1654113,13.913125 C30.6967953,13.913125 31.9426121,15.161375 31.9426121,16.69575 L31.9426121,23.65225 L26.37823,23.65225 L26.37823,16.69575 C26.37823,15.161375 27.6240468,13.913125 29.1654113,13.913125 L29.1654113,13.913125 Z M31.9426121,26.43475 L31.9426121,33.39125 C31.9426121,34.925625 30.6967953,36.173875 29.1554308,36.173875 C27.6240468,36.173875 26.37823,34.925625 26.37823,33.39125 L26.37823,26.43475 L31.9426121,26.43475 L31.9426121,26.43475 Z M34.5437817,34.783875 C34.658807,34.338625 34.7198129,33.872 34.7198129,33.391375 L34.7198129,26.434875 L40.1943704,26.434875 C39.744499,30.03075 37.5783548,33.098125 34.5437817,34.783875 L34.5437817,34.783875 Z M40.1944951,23.65225 L34.7199376,23.65225 L34.7199376,16.69575 C34.7199376,16.215 34.6586823,15.74825 34.5437817,15.303 C37.5783548,16.988625 39.744499,20.05625 40.1944951,23.65225 L40.1944951,23.65225 Z M23.7771852,15.303125 C23.6621598,15.748375 23.601154,16.215 23.601154,16.695625 L23.601154,23.652125 L18.1265965,23.652125 C18.5763431,20.05625 20.7424873,16.988875 23.7771852,15.303125 L23.7771852,15.303125 Z M42.7139493,48.695625 C42.7139493,49.464 42.0922885,50.086875 41.3254113,50.086875 L18.3858402,50.086875 C17.618963,50.086875 16.9973021,49.464 16.9973021,48.695625 C16.9973021,47.92725 17.618963,47.304375 18.3858402,47.304375 L41.3254113,47.304375 C42.0922885,47.304375 42.7139493,47.92725 42.7139493,48.695625 L42.7139493,48.695625 Z" id="Shape" fill="#FFD200"></path>
            </g>
        </g>
    </g>
</svg>