<?xml version="1.0" encoding="UTF-8" standalone="no"?>
<svg width="65px" height="65px" viewBox="0 0 65 65" version="1.1" xmlns="http://www.w3.org/2000/svg" xmlns:xlink="http://www.w3.org/1999/xlink">
    <!-- Generator: Sketch 39.1 (31720) - http://www.bohemiancoding.com/sketch -->
    <title>pencil</title>
    <desc>Created with Sketch.</desc>
    <defs></defs>
    <g id="Welcome" stroke="none" stroke-width="1" fill="none" fill-rule="evenodd">
        <g id="Визы" transform="translate(-211.000000, -285.000000)">
            <g id="pencil" transform="translate(211.000000, 285.000000)">
                <circle id="Oval" fill="#FFD200" cx="32.4953376" cy="32.4953376" r="32.4953376"></circle>
                <polygon id="Shape" fill="#FFF3D1" points="50.8349367 13.7200738 24.124462 28.5319831 22.7549367 29.8122363 35.9306013 42.352711 36.8747468 41.2863819"></polygon>
                <polygon id="Shape" fill="#626463" points="50.9165295 13.5677215 39.2601371 20.046192 44.8386181 25.6252215"></polygon>
                <g id="Group" transform="translate(5.622363, 31.128692)" fill="#E84849">
                    <path d="M31.491403,8.20947257 L27.5194093,8.43683544 L8.07412447,27.8656646 C9.1721308,28.6460759 10.3168987,29.3645042 11.5099367,30.005865 L30.3076899,11.224019 L31.491403,8.20947257 L31.491403,8.20947257 Z" id="Shape"></path>
                    <path d="M3.45665612,23.8865401 L23.2232384,4.13792194 L23.3997257,0.118206751 L19.5308544,0.447594937 L0.133702532,19.8282911 C1.13119198,21.2706329 2.24414557,22.626308 3.45665612,23.8865401 L3.45665612,23.8865401 Z" id="Shape"></path>
                </g>
                <g id="Group" transform="translate(4.113924, 27.837553)" fill="#F06668">
                    <path d="M21.0392932,3.73818565 L21.5837025,0.082278481 L18.9421519,1.63898734 L0.0289345992,20.5349262 C0.527679325,21.4225738 1.0653692,22.2851266 1.64214135,23.1194304 L21.0392932,3.73818565 L21.0392932,3.73818565 Z" id="Shape"></path>
                    <path d="M9.58311181,31.1568038 L29.0283966,11.7278376 L28.9771097,7.4767827 L24.7316772,7.42906118 L4.96509494,27.1776793 C6.37507384,28.6430591 7.92053797,29.9756962 9.58311181,31.1568038 L9.58311181,31.1568038 Z" id="Shape"></path>
                </g>
            </g>
        </g>
    </g>
</svg>