<?xml version="1.0" encoding="UTF-8" standalone="no"?>
<svg width="44px" height="72px" viewBox="0 0 44 72" version="1.1" xmlns="http://www.w3.org/2000/svg" xmlns:xlink="http://www.w3.org/1999/xlink">
    <!-- Generator: Sketch 39.1 (31720) - http://www.bohemiancoding.com/sketch -->
    <title>call</title>
    <desc>Created with Sketch.</desc>
    <defs></defs>
    <g id="Welcome" stroke="none" stroke-width="1" fill="none" fill-rule="evenodd">
        <g id="Визы" transform="translate(-536.000000, -281.000000)">
            <g id="call" transform="translate(536.000000, 281.000000)">
                <rect id="Rectangle-24" fill="#303030" x="0" y="0" width="44" height="72" rx="4"></rect>
                <rect id="Rectangle-24" fill="#FFD200" x="0" y="6" width="44" height="52"></rect>
                <circle id="Oval-4" fill="#FFFFFF" cx="22.5" cy="31.5" r="11.5"></circle>
                <g id="speech-bubble" transform="translate(10.000000, 20.000000)" fill="#EA4B31">
                    <path d="M12,24 C18.627417,24 24,18.627417 24,12 C24,5.372583 18.627417,0 12,0 C5.372583,0 0,5.372583 0,12 C0,18.627417 5.372583,24 12,24 Z M16.2305474,17.2678333 C15.9424451,17.5550132 15.6380352,17.8209205 15.3662406,18.1187367 C14.9694206,18.5548248 14.4693186,18.6930966 13.9039859,18.6611877 C13.0777304,18.6186425 12.3112698,18.347417 11.5774244,17.9964194 C9.94122118,17.21997 8.54419713,16.1403862 7.37548051,14.7789407 C6.5111738,13.773811 5.79907205,12.6782729 5.32614951,11.4391447 C5.09784208,10.8381942 4.93476534,10.2266073 4.98368836,9.57779343 C5.01630371,9.17893244 5.16850866,8.83857107 5.46748268,8.5567093 C5.79363616,8.25357495 6.09804607,7.9398043 6.41876365,7.63135181 C6.83732728,7.22717267 7.35917284,7.23249082 7.77773646,7.63135181 C8.03865924,7.88130469 8.28871024,8.13125758 8.54419713,8.38121047 C8.79424813,8.62584521 9.04429912,8.8651618 9.28891423,9.10979654 C9.72378553,9.54056641 9.72378553,10.0404722 9.28891423,10.471242 C8.97906843,10.7796945 8.66922263,11.088147 8.34850504,11.3859633 C8.26696667,11.4657354 8.25609489,11.5295532 8.29958202,11.630598 C8.50614589,12.1198675 8.8105558,12.5559555 9.14758106,12.9601346 C9.82706746,13.7791292 10.598964,14.5077153 11.5230655,15.0714388 C11.7187576,15.1937562 11.9361933,15.2788465 12.1427571,15.3905276 C12.2460391,15.4490272 12.3221415,15.4277546 12.4036799,15.3426643 C12.7135257,15.0288936 13.0342433,14.7204411 13.349525,14.4119886 C13.7680886,14.0078095 14.2899342,14.0078095 14.7030619,14.4119886 C15.2140357,14.9065762 15.7195736,15.4011639 16.2251115,15.9010696 C16.6599828,16.3371577 16.6599828,16.8476997 16.2305474,17.2678333 L16.2305474,17.2678333 Z M11.4089118,9.00343361 L11.5719886,7.86535025 C12.697218,8.0195765 13.7191656,8.51948228 14.5236775,9.30656796 C15.2901382,10.0564266 15.7902402,10.9977386 15.9696246,12.0347771 L14.8117797,12.2315485 C14.6704466,11.4285084 14.2844983,10.6999223 13.6919861,10.1202444 C13.0668586,9.50865753 12.2786544,9.12043283 11.4089118,9.00343361 L11.4089118,9.00343361 Z M17.8613147,12.0347771 C17.600392,10.5456961 16.8828543,9.19488688 15.7902402,8.12062129 C14.6378312,6.99317422 13.1755765,6.28054259 11.5611168,6.05718044 L11.7241935,4.91909708 C13.5887042,5.17436811 15.2847023,5.99868082 16.6164956,7.30694487 C17.8830583,8.54607301 18.7147497,10.1149262 19.0191596,11.8380057 L17.8613147,12.0347771 L17.8613147,12.0347771 Z" id="Shape"></path>
                </g>
            </g>
        </g>
    </g>
</svg>