<?xml version="1.0" encoding="UTF-8" standalone="no"?>
<svg width="67px" height="64px" viewBox="0 0 67 64" version="1.1" xmlns="http://www.w3.org/2000/svg" xmlns:xlink="http://www.w3.org/1999/xlink">
    <!-- Generator: Sketch 39.1 (31720) - http://www.bohemiancoding.com/sketch -->
    <title>folder</title>
    <desc>Created with Sketch.</desc>
    <defs></defs>
    <g id="Welcome" stroke="none" stroke-width="1" fill="none" fill-rule="evenodd">
        <g id="Визы" transform="translate(-846.000000, -285.000000)">
            <g id="folder" transform="translate(846.000000, 285.000000)">
                <path d="M66.1694278,30.9669112 C65.6313399,30.3445207 64.8497365,29.9529467 64.0212521,29.9529467 L58.4716402,30.0262249 L56.5311076,30.0493254 L62.9245779,60.7089231 L66.8314561,33.2336095 C66.9466657,32.4239527 66.7096034,31.5885444 66.1694278,30.9669112 L66.1694278,30.9669112 Z" id="Shape" fill="#FFB325"></path>
                <g id="Group">
                    <path d="M27.9858395,27.550296 L53.7823994,27.5502959 C55.2514646,27.5502959 56.5028272,28.5962604 56.7205297,30.0491361 L58.4712606,39.6017988 L58.4712606,9.95597633 L58.3169518,9.95597633 L52.821813,9.95597633 C50.4718782,9.95597633 48.5668385,8.05566864 48.5668385,5.71095858 L48.7260822,0.0751715976 L53.5986714,5.09500592 L48.7260822,0.0751715976 L37.9753343,0.0751715976 L21.7343824,0.0751715976 C19.3842578,0.0751715976 17.4794079,1.97566864 17.4794079,4.32 L17.4794079,20.6949112 L19.9801756,20.6949112 C21.3959065,20.6951006 22.7410312,21.3724024 23.6549263,22.4462012 L27.9858395,27.550296 Z" id="Shape" fill="#FFFBF3"></path>
                    <path d="M27.1716317,14.4003787 L49.8766601,14.4003787 C50.7717649,14.4003787 51.4933909,13.5990533 51.4933909,12.7089231 C51.4933909,11.8193609 50.7689178,11.0150059 49.8766601,11.0150059 L27.1716317,11.0150059 C26.2810822,11.0150059 25.5594561,11.8193609 25.5594561,12.7089231 C25.5594561,13.5988639 26.2827904,14.4003787 27.1716317,14.4003787 L27.1716317,14.4003787 Z" id="Shape" fill="#DEC8AE"></path>
                    <path d="M27.1716317,22.3447101 L49.8766601,22.3447101 C50.7717649,22.3447101 51.4933909,21.5437633 51.4933909,20.6536331 C51.4933909,19.7638817 50.7689178,18.9595266 49.8766601,18.9595266 L27.1716317,18.9595266 C26.2810822,18.9595266 25.5594561,19.7638817 25.5594561,20.6536331 C25.5594561,21.543574 26.2827904,22.3447101 27.1716317,22.3447101 L27.1716317,22.3447101 Z" id="Shape" fill="#DEC8AE"></path>
                    <path d="M53.7823994,27.5502959 L50.8175071,27.5502959 L27.9793683,27.5502959 L27.1144419,26.5293254 L23.6551161,22.4462012 C22.741221,21.3724024 21.3959065,20.6951006 19.9801756,20.6951006 L15.4794079,20.6951006 L6.51361473,20.6951006 C5.41162606,20.6951006 4.36524929,21.2108876 3.6519745,22.0519763 C2.94097734,22.8979882 2.63767422,24.0524497 2.82349008,25.1368521 L3.23365156,27.5502959 L2.96451275,27.5502959 C2.09749858,27.5502959 1.27736544,27.8998343 0.71801983,28.5557396 C0.150133144,29.2118343 -0.0977478754,30.0663669 0.0349235127,30.9207101 L6.32647025,60.7276686 C6.61686686,62.5982485 8.23132011,63.9742485 10.1274391,63.9742485 L59.9758187,63.9742485 C60.8405552,63.9742485 61.6604986,63.5949822 62.2202238,62.9453254 C62.7839348,62.2913136 63.0358017,61.4434083 62.9097734,60.5915266 L56.7205297,30.0491361 C56.5028272,28.5962604 55.2514646,27.5502959 53.7823994,27.5502959 Z" id="Shape" fill="#FFD200"></path>
                    <path d="M48.5670283,5.71095858 C48.5670283,8.05566864 50.472068,9.95597633 52.8220028,9.95597633 L58.3171416,9.95597633 L58.4714504,9.95597633 L53.5988612,5.09500592 L48.726272,0.0751715976 L48.5670283,5.71095858 L48.5670283,5.71095858 Z" id="Shape" fill="#E0DCD3"></path>
                </g>
            </g>
        </g>
    </g>
</svg>