<?xml version="1.0" encoding="utf-8"?>
<!-- Generator: Adobe Illustrator 18.1.1, SVG Export Plug-In . SVG Version: 6.00 Build 0)  -->
<svg version="1.1" id="Layer_1" xmlns="http://www.w3.org/2000/svg" xmlns:xlink="http://www.w3.org/1999/xlink" x="0px" y="0px"
	 viewBox="0 0 141.73 141.73" enable-background="new 0 0 141.73 141.73" xml:space="preserve">
<g>
	<path fill="#FFFFFF" d="M73.26,116.52h-9.45c-1.3,0-2.36,1.06-2.36,2.36s1.06,2.36,2.36,2.36h9.45c1.3,0,2.36-1.06,2.36-2.36
		S74.57,116.52,73.26,116.52z"/>
	<path fill="#FFFFFF" d="M127.93,70.05l-48.12-29.7c-0.83-0.51-1.89-0.46-2.67,0.13c-0.78,0.59-1.11,1.6-0.84,2.54l15.69,54.33
		c0.27,0.94,1.09,1.61,2.06,1.7c0.07,0.01,0.14,0.01,0.21,0.01c0.89,0,1.72-0.51,2.12-1.32l9.54-19.36l0.42-0.08v24.05H30.74V29.12
		h75.59v21.26c0,1.31,1.06,2.36,2.36,2.36c1.3,0,2.36-1.06,2.36-2.36V19.67c0-6.51-5.3-11.81-11.81-11.81H37.83
		c-6.51,0-11.81,5.3-11.81,11.81V123.6c0,6.51,5.3,11.81,11.81,11.81h61.42c6.51,0,11.81-5.3,11.81-11.81V77.4l16.07-3.02
		c0.96-0.18,1.71-0.93,1.89-1.89C129.19,71.53,128.76,70.56,127.93,70.05z M37.83,12.58h61.42c3.91,0,7.09,3.18,7.09,7.09v4.72
		H30.74v-4.72C30.74,15.76,33.92,12.58,37.83,12.58z M99.25,130.69H37.83c-3.91,0-7.09-3.18-7.09-7.09v-16.54h75.59v16.54
		C106.33,127.51,103.15,130.69,99.25,130.69z M103.88,73.94c-0.73,0.14-1.35,0.61-1.68,1.28l-7.36,14.95l-12.3-42.58l37.72,23.28
		L103.88,73.94z"/>
</g>
</svg>
