<svg xmlns="http://www.w3.org/2000/svg" width="48" height="48" viewBox="0 0 48 48">
  <g id="bus" transform="translate(-1 -1)">
    <path id="Контур_40" data-name="Контур 40" d="M1,61v2H49V61H1Z" transform="translate(0 -14)" fill="#00b4f1"/>
    <path id="Контур_41" data-name="Контур 41" d="M47,49a4,4,0,1,0,4,4A4,4,0,0,0,47,49Zm0,6a2,2,0,1,1,2-2A2,2,0,0,1,47,55Z" transform="translate(-10.889 -14)" fill="#00b4f1"/>
    <path id="Контур_42" data-name="Контур 42" d="M17,49a4,4,0,1,0,4,4A4,4,0,0,0,17,49Zm0,6a2,2,0,1,1,2-2A2,2,0,0,1,17,55Z" transform="translate(-3.111 -14)" fill="#00b4f1"/>
    <path id="Контур_43" data-name="Контур 43" d="M45.436,27.543C44.647,24.825,42.608,23,40.362,23H6.419C3.431,23,1,26.141,1,30V53a.909.909,0,0,0,.774,1H7.247c.383,3.94,2.988,7,6.14,7s5.757-3.06,6.14-7H30.474c.383,3.94,2.988,7,6.14,7s5.757-3.06,6.14-7h5.472A.909.909,0,0,0,49,53V40a1.275,1.275,0,0,0-.049-.352ZM2.548,43H4.1v2.586l-1.548,2ZM13.387,59c-2.562,0-4.645-2.691-4.645-6s2.083-6,4.645-6,4.645,2.691,4.645,6S15.949,59,13.387,59Zm23.226,0c-2.562,0-4.645-2.691-4.645-6s2.083-6,4.645-6,4.645,2.691,4.645,6S39.175,59,36.613,59Zm6.14-7c-.383-3.94-2.988-7-6.14-7s-5.757,3.06-6.14,7H19.527c-.383-3.94-2.988-7-6.14-7s-5.757,3.06-6.14,7h-4.7V50a.7.7,0,0,0,.547-.293l2.323-3A1.159,1.159,0,0,0,5.645,46V42a.909.909,0,0,0-.774-1H2.548V30c0-2.757,1.737-5,3.871-5H40.362a4.068,4.068,0,0,1,3.625,3.245l3.465,11.937V42H45.129a.909.909,0,0,0-.774,1v4a.909.909,0,0,0,.774,1h2.323v4Zm4.7-8v2H45.9V44Z" transform="translate(0 -14)" fill="#00b4f1"/>
    <path id="Контур_44" data-name="Контур 44" d="M41.09,29.139C40.809,27.859,39.965,27,38.99,27H7.192C5.984,27,5,28.346,5,30v8c0,.553.327,1,.731,1H42.269a.689.689,0,0,0,.586-.4,1.3,1.3,0,0,0,.114-.884ZM18.154,29H24v8H18.154Zm-1.462,8H10.846V29h5.846Zm8.769-8h6.577v8H25.462Zm-19,1c0-.552.328-1,.731-1H9.385v8H6.462ZM33.5,37V29h5.49c.325,0,.607.286.7.713L41.287,37Z" transform="translate(0 -7.28)" fill="#00b4f1"/>
    <path id="Контур_45" data-name="Контур 45" d="M41,41h4v2H41Z" transform="translate(-9.655 -9.333)" fill="#00b4f1"/>
    <path id="Контур_46" data-name="Контур 46" d="M29,41h4v2H29Z" transform="translate(-6.759 -9.333)" fill="#00b4f1"/>
    <path id="Контур_47" data-name="Контур 47" d="M40,15a4,4,0,0,1,4,4,1,1,0,0,0,2,0,4,4,0,0,1,4-4,1,1,0,0,0,0-2,4,4,0,0,1-4-4,1,1,0,0,0-2,0,4,4,0,0,1-4,4,1,1,0,0,0,0,2Zm5-2.687A6.062,6.062,0,0,0,46.687,14,6.062,6.062,0,0,0,45,15.687,6.062,6.062,0,0,0,43.313,14,6.049,6.049,0,0,0,45,12.313Z" transform="translate(-10.64)" fill="#00b4f1"/>
    <path id="Контур_48" data-name="Контур 48" d="M52,8a4,4,0,0,1,4,4,1,1,0,0,0,2,0,4,4,0,0,1,4-4,1,1,0,0,0,0-2,4,4,0,0,1-4-4,1,1,0,0,0-2,0,4,4,0,0,1-4,4,1,1,0,0,0,0,2Zm5-2.687A6.049,6.049,0,0,0,58.687,7,6.049,6.049,0,0,0,57,8.687,6.049,6.049,0,0,0,55.313,7,6.049,6.049,0,0,0,57,5.313Z" transform="translate(-14)" fill="#00b4f1"/>
    <path id="Контур_49" data-name="Контур 49" d="M2,15a4,4,0,0,1,4,4,1,1,0,0,0,2,0,4,4,0,0,1,4-4,1,1,0,0,0,0-2A4,4,0,0,1,8,9,1,1,0,0,0,6,9a4,4,0,0,1-4,4,1,1,0,0,0,0,2Zm5-2.687A6.049,6.049,0,0,0,8.687,14,6.049,6.049,0,0,0,7,15.687,6.049,6.049,0,0,0,5.313,14,6.049,6.049,0,0,0,7,12.313Z" fill="#00b4f1"/>
    <path id="Контур_50" data-name="Контур 50" d="M14,8a4,4,0,0,1,4,4,1,1,0,0,0,2,0,4,4,0,0,1,4-4,1,1,0,0,0,0-2,4,4,0,0,1-4-4,1,1,0,0,0-2,0,4,4,0,0,1-4,4,1,1,0,0,0,0,2Zm5-2.687A6.049,6.049,0,0,0,20.687,7,6.049,6.049,0,0,0,19,8.687,6.049,6.049,0,0,0,17.313,7,6.049,6.049,0,0,0,19,5.313Z" transform="translate(-3.36)" fill="#00b4f1"/>
  </g>
</svg>
