<svg xmlns="http://www.w3.org/2000/svg" width="14.261" height="13.667" viewBox="0 0 14.261 13.667">
  <g id="Group_28" data-name="Group 28" transform="translate(-1617.333 -557.333)">
    <g id="download" transform="translate(1631.594 571) rotate(180)">
      <g id="Group_3" data-name="Group 3" transform="translate(0 0)">
        <path id="Path_1" data-name="Path 1" d="M14.17.087a.32.32,0,0,0-.438,0l-6.6,6.326L.529.088a.32.32,0,0,0-.438,0,.289.289,0,0,0,0,.42L6.911,7.044a.319.319,0,0,0,.219.087.314.314,0,0,0,.219-.087L14.17.507A.289.289,0,0,0,14.17.087Z" fill="#333"/>
      </g>
    </g>
    <g id="download-2" data-name="download" transform="translate(1617.333 557.333)">
      <g id="Group_3-2" data-name="Group 3" transform="translate(0 0)">
        <path id="Path_1-2" data-name="Path 1" d="M14.17.087a.32.32,0,0,0-.438,0l-6.6,6.326L.529.088a.32.32,0,0,0-.438,0,.289.289,0,0,0,0,.42L6.911,7.044a.319.319,0,0,0,.219.087.314.314,0,0,0,.219-.087L14.17.507A.289.289,0,0,0,14.17.087Z" fill="#333"/>
      </g>
    </g>
  </g>
</svg>
