<svg xmlns="http://www.w3.org/2000/svg" width="52.885" height="52.902" viewBox="0 0 52.885 52.902">
  <g id="credit-card" transform="translate(-0.501 0)">
    <path id="Контур_34" data-name="Контур 34" d="M287.455,151.957a1.033,1.033,0,1,0,1.033,1.033A1.033,1.033,0,0,0,287.455,151.957Zm0,0" transform="translate(-256.378 -136.257)" fill="#00b4f1"/>
    <path id="Контур_35" data-name="Контур 35" d="M220.488,331.958a1.034,1.034,0,1,0-1.461,0A1.035,1.035,0,0,0,220.488,331.958Zm0,0" transform="translate(-195.676 -296.077)" fill="#00b4f1"/>
    <path id="Контур_36" data-name="Контур 36" d="M12.4,242.978a1.033,1.033,0,0,0,1.458.008l5.008-4.934a3.122,3.122,0,0,0,.735-3.205l1.077-1.039a3.08,3.08,0,0,1,2.151-.869H36.56a9.248,9.248,0,0,0,6.484-2.634c.072-.07-.545.657,9.368-11.191a4.132,4.132,0,0,0-6.287-5.363l-6.1,6.265a4.151,4.151,0,0,0-3.212-1.538H25.3a13.327,13.327,0,0,0-5.173-1.033,12.779,12.779,0,0,0-11.648,6.6,3.086,3.086,0,0,0-2.763.856L.8,229.834a1.033,1.033,0,0,0,0,1.457Zm7.728-23.467a11.276,11.276,0,0,1,4.547.946,1.031,1.031,0,0,0,.414.087h11.73a2.066,2.066,0,1,1,0,4.132H28.391a1.033,1.033,0,1,0,0,2.066h8.428a4.125,4.125,0,0,0,4.1-4.672c5.9-6.061,6.728-6.913,6.763-6.955a2.066,2.066,0,1,1,3.155,2.669L41.567,228.86a7.193,7.193,0,0,1-5.007,2.014H22.828a5.136,5.136,0,0,0-3.586,1.448l-.878.847-8.092-8.092a10.665,10.665,0,0,1,9.855-5.566ZM7.178,226.365a1.03,1.03,0,0,1,1.279-.145c.158.1,8.993,8.953,9.047,9.026a1.037,1.037,0,0,1-.095,1.34l-4.269,4.206L2.991,230.565Zm0,0" transform="translate(0 -190.382)" fill="#00b4f1"/>
    <path id="Контур_37" data-name="Контур 37" d="M129.564,21.9h24.791a3.1,3.1,0,0,0,3.1-3.1V3.1a3.1,3.1,0,0,0-3.1-3.1H129.564a3.1,3.1,0,0,0-3.1,3.1V18.8A3.1,3.1,0,0,0,129.564,21.9ZM155.387,8.263H128.531V6.2h26.857Zm-1.033,11.57H129.564a1.034,1.034,0,0,1-1.033-1.033v-8.47h26.857V18.8a1.034,1.034,0,0,1-1.033,1.033ZM129.564,2.066h24.791A1.034,1.034,0,0,1,155.387,3.1V4.131H128.531V3.1a1.034,1.034,0,0,1,1.033-1.033Zm0,0" transform="translate(-112.949 0)" fill="#00b4f1"/>
    <path id="Контур_38" data-name="Контур 38" d="M331.575,151.957h-4.132a1.033,1.033,0,0,0,0,2.066h4.132a1.033,1.033,0,1,0,0-2.066Zm0,0" transform="translate(-292.235 -136.257)" fill="#00b4f1"/>
  </g>
</svg>
