<svg width="10" height="16" viewBox="0 0 10 16" fill="none" xmlns="http://www.w3.org/2000/svg">
<path d="M5.75 1.33337C5.75 0.91916 5.41422 0.583374 5 0.583374C4.58579 0.583374 4.25 0.919161 4.25 1.33337L5.75 1.33337ZM4.25 14.6667C4.25 15.0809 4.58579 15.4167 5 15.4167C5.41422 15.4167 5.75 15.0809 5.75 14.6667H4.25ZM9.69936 11.8613C9.99094 11.5671 9.98882 11.0923 9.69463 10.8007C9.40043 10.5091 8.92556 10.5112 8.63398 10.8054L9.69936 11.8613ZM7.71058 12.8025L7.17789 12.2746L7.71058 12.8025ZM2.28943 12.8025L2.82212 12.2746L2.28943 12.8025ZM1.36603 10.8054C1.07444 10.5112 0.599574 10.5091 0.305377 10.8007C0.0111801 11.0923 0.00906146 11.5671 0.300645 11.8613L1.36603 10.8054ZM5.26111 14.6501L5.35594 15.3941H5.35594L5.26111 14.6501ZM4.73889 14.6501L4.64406 15.3941H4.64406L4.73889 14.6501ZM4.25 1.33337L4.25 14.6667H5.75L5.75 1.33337L4.25 1.33337ZM8.63398 10.8054L7.17789 12.2746L8.24327 13.3305L9.69936 11.8613L8.63398 10.8054ZM2.82212 12.2746L1.36603 10.8054L0.300645 11.8613L1.75674 13.3305L2.82212 12.2746ZM7.17789 12.2746C6.58487 12.8729 6.18392 13.2758 5.84614 13.5471C5.5202 13.8088 5.3266 13.8857 5.16628 13.9062L5.35594 15.3941C5.90329 15.3243 6.35382 15.0632 6.78539 14.7166C7.20513 14.3795 7.67508 13.9038 8.24327 13.3305L7.17789 12.2746ZM1.75674 13.3305C2.32492 13.9038 2.79487 14.3795 3.21462 14.7166C3.64619 15.0632 4.09672 15.3243 4.64406 15.3941L4.83372 13.9062C4.67341 13.8857 4.4798 13.8088 4.15386 13.5471C3.81608 13.2758 3.41513 12.8729 2.82212 12.2746L1.75674 13.3305ZM5.16629 13.9062C5.05587 13.9202 4.94414 13.9202 4.83372 13.9062L4.64406 15.3941C4.88041 15.4242 5.11959 15.4242 5.35594 15.3941L5.16629 13.9062Z" fill="white"/>
</svg>
