<svg height="512" viewBox="0 0 64 64" width="512" xmlns="http://www.w3.org/2000/svg"><path d="m61 49h-1.28l-1.72-5.18a26.028 26.028 0 0 0 -23-25.64v-4.18h2.5a3.5 3.5 0 0 0 0-7h-11a3.5 3.5 0 0 0 0 7h2.5v4.18a26.028 26.028 0 0 0 -23 25.64l-1.72 5.18h-1.28a1 1 0 0 0 -1 1v6a1 1 0 0 0 1 1h58a1 1 0 0 0 1-1v-6a1 1 0 0 0 -1-1zm-34.5-37a1.5 1.5 0 0 1 0-3h11a1.5 1.5 0 0 1 0 3zm6.5 2v4.03c-.33-.02-.66-.03-1-.03s-.67.01-1 .03v-4.03zm-1 6a24.017 24.017 0 0 1 23.97 23h-43.92a20.013 20.013 0 0 1 19.95-19v-2a22.014 22.014 0 0 0 -21.97 21h-2a24.017 24.017 0 0 1 23.97-23zm-24.28 25h48.56l1.33 4h-51.22zm52.28 10h-56v-4h56z"/><path d="m5 25h4v2h-4z"/><path d="m11 19h2v4h-2z"/><path d="m7.465 20.464h2v4h-2z" transform="matrix(.707 -.707 .707 .707 -13.406 12.565)"/><path d="m55 25h4v2h-4z"/><path d="m51 19h2v4h-2z"/><path d="m53.535 21.465h4v2h-4z" transform="matrix(.707 -.707 .707 .707 .381 45.849)"/></svg>