<?xml version="1.0"?>
<svg xmlns="http://www.w3.org/2000/svg" id="Capa_1" enable-background="new 0 0 512 512" height="512px" viewBox="0 0 512 512" width="512px"><g><g><g><path d="m39.825 237.236h32.325c4.142 0 7.5-3.358 7.5-7.5v-62.63c0-4.142-3.358-7.5-7.5-7.5h-32.325c-4.142 0-7.5 3.358-7.5 7.5v62.63c0 4.142 3.358 7.5 7.5 7.5zm7.5-62.631h17.325v47.63h-17.325z" data-original="#000000" class="active-path" data-old_color="#000000" fill="#1FDC57"/><path d="m32.325 324.691c0 4.142 3.358 7.5 7.5 7.5h32.325c4.142 0 7.5-3.358 7.5-7.5v-62.63c0-4.142-3.358-7.5-7.5-7.5h-32.325c-4.142 0-7.5 3.358-7.5 7.5zm15-55.13h17.325v47.63h-17.325z" data-original="#000000" class="active-path" data-old_color="#000000" fill="#1FDC57"/><path d="m32.325 472.175c0 4.142 3.358 7.5 7.5 7.5h32.325c4.142 0 7.5-3.358 7.5-7.5v-62.63c0-4.142-3.358-7.5-7.5-7.5h-32.325c-4.142 0-7.5 3.358-7.5 7.5zm15-55.13h17.325v47.63h-17.325z" data-original="#000000" class="active-path" data-old_color="#000000" fill="#1FDC57"/><path d="m504.5 159c4.143 0 7.5-3.358 7.5-7.5v-40.963c0-4.142-3.357-7.5-7.5-7.5h-89.48v-55.712h2.606c4.143 0 7.5-3.358 7.5-7.5v-32.325c0-4.142-3.357-7.5-7.5-7.5h-323.252c-4.142 0-7.5 3.358-7.5 7.5v32.325c0 4.142 3.358 7.5 7.5 7.5h2.606v55.711h-89.48c-4.142 0-7.5 3.358-7.5 7.5v40.964c0 4.142 3.358 7.5 7.5 7.5s7.5-3.358 7.5-7.5v-33.463h81.98v231.479h-2.606c-4.142 0-7.5 3.358-7.5 7.5v32.325c0 4.142 3.358 7.5 7.5 7.5h2.606v100.159h-81.98v-310.444c0-4.142-3.358-7.5-7.5-7.5s-7.5 3.358-7.5 7.5v317.944c0 4.142 3.358 7.5 7.5 7.5h497c4.143 0 7.5-3.358 7.5-7.5v-317.944c0-4.142-3.357-7.5-7.5-7.5s-7.5 3.358-7.5 7.5v310.444h-81.98v-100.159h2.606c4.143 0 7.5-3.358 7.5-7.5v-32.325c0-4.142-3.357-7.5-7.5-7.5h-2.606v-231.479h81.98v33.463c0 4.142 3.357 7.5 7.5 7.5zm-94.374 205.516v17.325h-308.252v-17.325zm-161.626 132.484h-25.407v-67.833h25.407zm15 0v-67.833h25.406v67.833zm136.52 0h-96.113v-75.333c0-4.142-3.357-7.5-7.5-7.5h-80.813c-4.142 0-7.5 3.358-7.5 7.5v75.333h-96.114v-100.159h288.04zm-288.04-147.484v-302.191h231.143c4.143 0 7.5-3.358 7.5-7.5s-3.357-7.5-7.5-7.5h-241.249v-17.325h308.252v17.325h-31.947c-4.143 0-7.5 3.358-7.5 7.5s3.357 7.5 7.5 7.5h21.841v302.191z" data-original="#000000" class="active-path" data-old_color="#000000" fill="#1FDC57"/><path d="m169.126 64.65h-32.325c-4.142 0-7.5 3.358-7.5 7.5v62.63c0 4.142 3.358 7.5 7.5 7.5h32.325c4.142 0 7.5-3.358 7.5-7.5v-62.63c0-4.142-3.358-7.5-7.5-7.5zm-7.5 62.63h-17.325v-47.63h17.325z" data-original="#000000" class="active-path" data-old_color="#000000" fill="#1FDC57"/><path d="m237.817 64.65h-32.325c-4.142 0-7.5 3.358-7.5 7.5v62.63c0 4.142 3.358 7.5 7.5 7.5h32.325c4.142 0 7.5-3.358 7.5-7.5v-62.63c0-4.142-3.358-7.5-7.5-7.5zm-7.5 62.63h-17.325v-47.63h17.325z" data-original="#000000" class="active-path" data-old_color="#000000" fill="#1FDC57"/><path d="m306.508 64.65h-32.325c-4.143 0-7.5 3.358-7.5 7.5v62.63c0 4.142 3.357 7.5 7.5 7.5h32.325c4.143 0 7.5-3.358 7.5-7.5v-62.63c0-4.142-3.358-7.5-7.5-7.5zm-7.5 62.63h-17.325v-47.63h17.325z" data-original="#000000" class="active-path" data-old_color="#000000" fill="#1FDC57"/><path d="m375.199 64.65h-32.325c-4.143 0-7.5 3.358-7.5 7.5v62.63c0 4.142 3.357 7.5 7.5 7.5h32.325c4.143 0 7.5-3.358 7.5-7.5v-62.63c0-4.142-3.357-7.5-7.5-7.5zm-7.5 62.63h-17.325v-47.63h17.325z" data-original="#000000" class="active-path" data-old_color="#000000" fill="#1FDC57"/><path d="m169.126 159.605h-32.325c-4.142 0-7.5 3.358-7.5 7.5v62.63c0 4.142 3.358 7.5 7.5 7.5h32.325c4.142 0 7.5-3.358 7.5-7.5v-62.63c0-4.142-3.358-7.5-7.5-7.5zm-7.5 62.631h-17.325v-47.63h17.325z" data-original="#000000" class="active-path" data-old_color="#000000" fill="#1FDC57"/><path d="m237.817 159.605h-32.325c-4.142 0-7.5 3.358-7.5 7.5v62.63c0 4.142 3.358 7.5 7.5 7.5h32.325c4.142 0 7.5-3.358 7.5-7.5v-62.63c0-4.142-3.358-7.5-7.5-7.5zm-7.5 62.631h-17.325v-47.63h17.325z" data-original="#000000" class="active-path" data-old_color="#000000" fill="#1FDC57"/><path d="m306.508 159.605h-32.325c-4.143 0-7.5 3.358-7.5 7.5v62.63c0 4.142 3.357 7.5 7.5 7.5h32.325c4.143 0 7.5-3.358 7.5-7.5v-62.63c0-4.142-3.358-7.5-7.5-7.5zm-7.5 62.631h-17.325v-47.63h17.325z" data-original="#000000" class="active-path" data-old_color="#000000" fill="#1FDC57"/><path d="m375.199 159.605h-32.325c-4.143 0-7.5 3.358-7.5 7.5v62.63c0 4.142 3.357 7.5 7.5 7.5h32.325c4.143 0 7.5-3.358 7.5-7.5v-62.63c0-4.142-3.357-7.5-7.5-7.5zm-7.5 62.631h-17.325v-47.63h17.325z" data-original="#000000" class="active-path" data-old_color="#000000" fill="#1FDC57"/><path d="m169.126 254.561h-32.325c-4.142 0-7.5 3.358-7.5 7.5v62.63c0 4.142 3.358 7.5 7.5 7.5h32.325c4.142 0 7.5-3.358 7.5-7.5v-62.63c0-4.142-3.358-7.5-7.5-7.5zm-7.5 62.63h-17.325v-47.63h17.325z" data-original="#000000" class="active-path" data-old_color="#000000" fill="#1FDC57"/><path d="m237.817 254.561h-32.325c-4.142 0-7.5 3.358-7.5 7.5v62.63c0 4.142 3.358 7.5 7.5 7.5h32.325c4.142 0 7.5-3.358 7.5-7.5v-62.63c0-4.142-3.358-7.5-7.5-7.5zm-7.5 62.63h-17.325v-47.63h17.325z" data-original="#000000" class="active-path" data-old_color="#000000" fill="#1FDC57"/><path d="m306.508 254.561h-32.325c-4.143 0-7.5 3.358-7.5 7.5v62.63c0 4.142 3.357 7.5 7.5 7.5h32.325c4.143 0 7.5-3.358 7.5-7.5v-62.63c0-4.142-3.358-7.5-7.5-7.5zm-7.5 62.63h-17.325v-47.63h17.325z" data-original="#000000" class="active-path" data-old_color="#000000" fill="#1FDC57"/><path d="m375.199 254.561h-32.325c-4.143 0-7.5 3.358-7.5 7.5v62.63c0 4.142 3.357 7.5 7.5 7.5h32.325c4.143 0 7.5-3.358 7.5-7.5v-62.63c0-4.142-3.357-7.5-7.5-7.5zm-7.5 62.63h-17.325v-47.63h17.325z" data-original="#000000" class="active-path" data-old_color="#000000" fill="#1FDC57"/><path d="m136.801 479.675h46.467c4.142 0 7.5-3.358 7.5-7.5v-50.508c0-4.142-3.358-7.5-7.5-7.5h-46.467c-4.142 0-7.5 3.358-7.5 7.5v50.508c0 4.142 3.358 7.5 7.5 7.5zm7.5-50.508h31.467v35.508h-31.467z" data-original="#000000" class="active-path" data-old_color="#000000" fill="#1FDC57"/><path d="m328.731 479.675h46.468c4.143 0 7.5-3.358 7.5-7.5v-50.508c0-4.142-3.357-7.5-7.5-7.5h-46.468c-4.143 0-7.5 3.358-7.5 7.5v50.508c0 4.142 3.358 7.5 7.5 7.5zm7.5-50.508h31.468v35.508h-31.468z" data-original="#000000" class="active-path" data-old_color="#000000" fill="#1FDC57"/><path d="m479.675 167.105c0-4.142-3.357-7.5-7.5-7.5h-32.325c-4.143 0-7.5 3.358-7.5 7.5v62.63c0 4.142 3.357 7.5 7.5 7.5h32.325c4.143 0 7.5-3.358 7.5-7.5zm-15 55.131h-17.325v-47.63h17.325z" data-original="#000000" class="active-path" data-old_color="#000000" fill="#1FDC57"/><path d="m479.675 262.061c0-4.142-3.357-7.5-7.5-7.5h-32.325c-4.143 0-7.5 3.358-7.5 7.5v62.63c0 4.142 3.357 7.5 7.5 7.5h32.325c4.143 0 7.5-3.358 7.5-7.5zm-15 55.13h-17.325v-47.63h17.325z" data-original="#000000" class="active-path" data-old_color="#000000" fill="#1FDC57"/><path d="m472.175 402.045h-32.325c-4.143 0-7.5 3.358-7.5 7.5v62.63c0 4.142 3.357 7.5 7.5 7.5h32.325c4.143 0 7.5-3.358 7.5-7.5v-62.63c0-4.142-3.358-7.5-7.5-7.5zm-7.5 62.63h-17.325v-47.63h17.325z" data-original="#000000" class="active-path" data-old_color="#000000" fill="#1FDC57"/></g></g></g> </svg>
