<?xml version="1.0"?>
<svg xmlns="http://www.w3.org/2000/svg" viewBox="0 0 512 512" width="512px" height="512px"><g><path d="m361 15v-15h-120v67.5l-120 90v83.5h-121v271h512v-271h-121v-83.5l-91.625-68.71875c34.992188-6.328125 61.625-36.992188 61.625-73.78125zm-331 467v-211h91v211zm271-91v91h-30v-91zm0-30h-90v-30h90zm-90 30h30v91h-30zm271-120v211h-91v-211zm-121 211h-30v-181h-150v181h-30v-309.5l105-78.75 105 78.75zm-75-422h-15v-30.011719h57.429688c-6.191407 17.460938-22.871094 30.011719-42.429688 30.011719zm0 0" data-original="#000000" class="active-path" data-old_color="#000000" fill="#1FDC57"/><path d="m61 301h30v30h-30zm0 0" data-original="#000000" class="active-path" data-old_color="#000000" fill="#1FDC57"/><path d="m61 361h30v30h-30zm0 0" data-original="#000000" class="active-path" data-old_color="#000000" fill="#1FDC57"/><path d="m61 421h30v30h-30zm0 0" data-original="#000000" class="active-path" data-old_color="#000000" fill="#1FDC57"/><path d="m421 301h30v30h-30zm0 0" data-original="#000000" class="active-path" data-old_color="#000000" fill="#1FDC57"/><path d="m421 361h30v30h-30zm0 0" data-original="#000000" class="active-path" data-old_color="#000000" fill="#1FDC57"/><path d="m421 421h30v30h-30zm0 0" data-original="#000000" class="active-path" data-old_color="#000000" fill="#1FDC57"/><path d="m211 195c0 24.8125 20.1875 45 45 45s45-20.1875 45-45-20.1875-45-45-45-45 20.1875-45 45zm60 0c0 8.269531-6.730469 15-15 15s-15-6.730469-15-15 6.730469-15 15-15 15 6.730469 15 15zm0 0" data-original="#000000" class="active-path" data-old_color="#000000" fill="#1FDC57"/></g> </svg>
