<svg xmlns="http://www.w3.org/2000/svg" width="52" height="47.912" viewBox="0 0 52 47.912">
  <g id="repair-tools" transform="translate(0 -20.126)">
    <g id="Сгруппировать_124" data-name="Сгруппировать 124" transform="translate(0 20.126)">
      <path id="Контур_39" data-name="Контур 39" d="M37.917,46.115l3.75-3.75a8.806,8.806,0,0,0,2.247.091.772.772,0,1,0-.14-1.537,7.3,7.3,0,0,1-2.2-.143.773.773,0,0,0-.71.208l-4.04,4.04-5.093-5.093,4.039-4.039a.772.772,0,0,0,.208-.71,7.32,7.32,0,0,1,7.661-8.866L38.91,31.046a.772.772,0,0,0-.2.727l1.114,4.594a.772.772,0,0,0,.568.568l4.594,1.114a.772.772,0,0,0,.727-.2l4.731-4.731a7.337,7.337,0,0,1-3.586,6.821.769.769,0,0,0-.3.988h0a.773.773,0,0,0,1.1.337A8.884,8.884,0,0,0,51.7,31.311a.772.772,0,0,0-1.291-.346l-5.483,5.483-3.716-.9-.9-3.716,5.483-5.483a.772.772,0,0,0-.346-1.291A8.867,8.867,0,0,0,34.391,35.09l-3.75,3.749-.59-.59a1.527,1.527,0,0,0-1.793-.268l-2.5-2.5.1-.1a2.43,2.43,0,0,0,.725-1.561A2.348,2.348,0,0,0,25.9,32l-.173-.173a27.721,27.721,0,0,1,10.346-8.659.772.772,0,0,0,.447-.837.79.79,0,0,0-.386-.542A12.435,12.435,0,0,0,21.08,23.833L19.409,25.5l-.022-.022a2.357,2.357,0,0,0-1.668-.691h0a2.345,2.345,0,0,0-1.669.691L8.91,32.622a.778.778,0,0,0,0,1.091,1.368,1.368,0,0,1,.241.339A2.53,2.53,0,0,1,8.423,36.8a2.524,2.524,0,0,1-2.715.741,1.338,1.338,0,0,1-.368-.252.779.779,0,0,0-1.094,0l-4.02,4.02a.771.771,0,0,0,0,1.091l8.752,8.752a.8.8,0,0,0,.264.181.773.773,0,0,0,.84-.168l4.02-4.02a.772.772,0,0,0,.008-1.083,1.366,1.366,0,0,1-.25-.359,2.509,2.509,0,0,1,.735-2.729,2.535,2.535,0,0,1,2.743-.73,1.383,1.383,0,0,1,.346.245.772.772,0,0,0,1.082-.009l1.168-1.168,2.5,2.5A1.527,1.527,0,0,0,22.7,45.6h0l.59.59-8.328,8.327a.771.771,0,0,0,0,1.091h0a.771.771,0,0,0,1.091,0l7.815-7.816.512-.512.695.695-5.76,5.76a1.876,1.876,0,0,0,0,2.646l1.056,1.055a1.873,1.873,0,0,0,2.645,0l5.76-5.759.7.7h0L16.411,65.439a3.609,3.609,0,0,1-5.1.005,3.6,3.6,0,0,1,0-5.1l2.191-2.19a.771.771,0,0,0,0-1.091h0a.771.771,0,0,0-1.091,0l-2.191,2.19A5.145,5.145,0,1,0,17.5,66.53L30.562,53.468l0,0L43.018,65.92a5.314,5.314,0,0,0,3.762,1.552,5.18,5.18,0,0,0,3.649-8.846ZM22.172,24.925a10.935,10.935,0,0,1,11.854-2.46,29.83,29.83,0,0,0-9.407,8.254L20.5,26.6ZM9.536,49.525,1.862,41.852l2.929-2.929L12.465,46.6ZM13.5,41.881a4.6,4.6,0,0,0-1.265,2.307L7.214,39.163a4.6,4.6,0,0,0,2.3-1.272,4.559,4.559,0,0,0,1.31-2.555l5.236,5.236A4.557,4.557,0,0,0,13.5,41.881ZM18.366,40.7l-7.673-7.674,6.448-6.448a.812.812,0,0,1,.577-.239h0a.811.811,0,0,1,.578.24l.566.568h0L24.811,33.1a.816.816,0,0,1,0,1.155Zm2.659-.476,3.645-3.645,2.452,2.452L25.3,40.849l-1.822,1.822Zm.9,16.13a.328.328,0,0,1-.464,0l-1.056-1.055a.33.33,0,0,1,0-.465l5.76-5.759,1.52,1.52Zm27.347,8.6a3.721,3.721,0,0,1-5.165-.12l-20.3-20.3,5.17-5.17L49.337,59.717a3.661,3.661,0,0,1-.063,5.232Z" transform="translate(0 -20.126)" fill="#00b4f1"/>
    </g>
  </g>
</svg>
