<?xml version="1.0" encoding="iso-8859-1"?>
<!-- Generator: Adobe Illustrator 19.0.0, SVG Export Plug-In . SVG Version: 6.00 Build 0)  -->
<svg version="1.1" id="Capa_1" xmlns="http://www.w3.org/2000/svg" xmlns:xlink="http://www.w3.org/1999/xlink" x="0px" y="0px"
	 viewBox="0 0 512 512" style="enable-background:new 0 0 512 512;" xml:space="preserve">
<g>
	<g>
		<path fill="#00B4F1" d="M256,90c-57.891,0-105,48.109-105,106c0,22.925,7.236,44.678,20.918,62.9C191.986,285.663,222.631,301,256,301
			s64.014-15.352,84.097-42.114C353.778,240.663,361,218.925,361,196C361,138.109,313.891,90,256,90z M301,241
			c0,8.291-6.709,15-15,15c-8.291,0-15-6.709-15-15v-30h-30v30c0,8.291-6.709,15-15,15s-15-6.709-15-15v-90c0-8.291,6.709-16,15-16
			s15,7.709,15,16v30h30v-30c0-8.291,6.709-16,15-16c8.291,0,15,7.709,15,16V241z"/>
	</g>
</g>
<g>
	<g>
		<path fill="#00B4F1" d="M256,0C148.48,0,61,88.48,61,196c0,42.554,13.462,82.983,38.921,116.895l144.082,193.1
			C246.83,509.773,251.283,512,256,512s9.17-2.227,11.997-6.006l144.082-193.085C437.538,278.983,451,238.554,451,196
			C451,88.48,363.52,0,256,0z M364.091,276.889C338.295,311.269,298.905,331,256,331c-42.891,0-82.295-19.717-108.076-54.082
			C130.316,253.451,121,225.473,121,196c0-74.443,60.557-136,135-136s135,61.557,135,136
			C391,225.473,381.698,253.451,364.091,276.889z"/>
	</g>
</g>
<g>
</g>
<g>
</g>
<g>
</g>
<g>
</g>
<g>
</g>
<g>
</g>
<g>
</g>
<g>
</g>
<g>
</g>
<g>
</g>
<g>
</g>
<g>
</g>
<g>
</g>
<g>
</g>
<g>
</g>
</svg>
