<?xml version="1.0" encoding="utf-8"?>
<!-- Generator: Adobe Illustrator 18.1.1, SVG Export Plug-In . SVG Version: 6.00 Build 0)  -->
<svg version="1.1" baseProfile="tiny" id="Layer_1" xmlns="http://www.w3.org/2000/svg" xmlns:xlink="http://www.w3.org/1999/xlink"
	 x="0px" y="0px" viewBox="0 0 283.46 283.46" xml:space="preserve">
<path fill="#FFFFFF" d="M125.291,220.188h28.14V101.597h-19.765c-0.335,1.901-0.98,3.936-1.926,6.114
	c-0.946,2.178-2.429,4.188-4.439,6.03c-2.01,1.843-4.715,3.375-8.124,4.606c-3.409,1.231-7.789,1.843-13.149,1.843h-3.518v17.755
	h22.78V220.188z"/>
<path fill="#FFFFFF" d="M146.693,51.313c-0.402,0.302-0.695,0.662-0.871,1.08s-0.276,0.972-0.276,1.675
	c0,0.988,0.176,1.759,0.553,2.328c0.36,0.561,0.896,0.854,1.608,0.854c0.796,0,1.499-0.243,2.094-0.737
	c0.603-0.494,0.888-1.382,0.888-2.672c0-1.039,0.017-1.901,0.033-2.58c0.008-0.678,0.017-1.273,0.017-1.801
	c-1.164,0.611-2.052,1.005-2.647,1.181C147.489,50.81,147.028,51.036,146.693,51.313z"/>
<path fill="#FFFFFF" d="M250.251,15.702h-9.405c0.243-0.779,0.494-1.558,0.494-2.42c0-4.439-3.618-8.048-8.065-8.048
	s-8.048,3.61-8.048,8.048c0,0.871,0.234,1.642,0.494,2.42H194.9c0.243-0.779,0.494-1.558,0.494-2.42
	c0-4.439-3.618-8.048-8.065-8.048c-4.439,0-8.057,3.61-8.057,8.048c0,0.871,0.243,1.642,0.503,2.42h-30.829
	c0.243-0.779,0.486-1.558,0.486-2.42c0-4.439-3.601-8.048-8.048-8.048c-4.447,0-8.048,3.61-8.048,8.048
	c0,0.871,0.234,1.642,0.486,2.42h-30.829c0.243-0.779,0.494-1.558,0.494-2.42c0-4.439-3.61-8.048-8.048-8.048
	c-4.447,0-8.057,3.61-8.057,8.048c0,0.871,0.234,1.642,0.486,2.42h-30.82c0.251-0.779,0.494-1.558,0.494-2.42
	c0-4.439-3.601-8.048-8.048-8.048s-8.057,3.61-8.057,8.048c0,0.871,0.235,1.642,0.486,2.42h-9.422
	c-12.713,0-23.031,10.326-23.031,23.031v217.752c0,12.713,10.318,23.031,23.031,23.031h191.747l49.036-49.036V38.734
	C273.282,26.029,262.964,15.702,250.251,15.702z M167.522,36.841l3.032,17.462h0.1l2.906-17.462h7.471l-6.725,25.108
	c-0.436,1.591-0.879,2.906-1.357,3.936s-1.047,1.834-1.75,2.42c-0.687,0.578-1.516,0.988-2.487,1.223
	c-0.98,0.234-2.194,0.343-3.635,0.343h-1.709c-0.235,0-0.503-0.008-0.762-0.025s-0.511-0.034-0.754-0.067v-5.251
	c0.293,0.059,0.603,0.109,0.913,0.142s0.611,0.042,0.921,0.042c0.703,0,1.348-0.184,1.935-0.57c0.578-0.385,0.98-1.114,1.198-2.186
	l-7.043-25.108L167.522,36.841L167.522,36.841z M150.194,41.749c-0.368-0.444-0.963-0.67-1.792-0.67
	c-1.047,0-1.75,0.302-2.119,0.896c-0.368,0.595-0.57,1.441-0.603,2.513h-6.633c0.025-1.75,0.285-3.149,0.762-4.196
	c0.477-1.039,1.156-1.868,2.052-2.487c0.888-0.611,1.884-1.03,2.973-1.265c1.089-0.226,2.42-0.343,3.987-0.343
	c3.074,0,5.318,0.561,6.725,1.683c1.407,1.122,2.127,3.015,2.127,5.687v12.805c0,0.946,0.033,1.951,0.117,2.99
	c0.075,1.047,0.335,1.843,0.762,2.395h-7.186c-0.159-0.436-0.243-0.888-0.293-1.382c-0.05-0.494-0.084-0.98-0.117-1.474h-0.109
	c-0.528,1.106-1.298,1.96-2.345,2.58s-2.219,0.921-3.501,0.921c-2.119,0-3.76-0.586-4.899-1.776
	c-1.156-1.181-1.734-3.124-1.734-5.821c0-1.482,0.276-2.772,0.829-3.894c0.553-1.122,1.29-1.943,2.211-2.471
	c0.921-0.519,2.002-0.913,3.258-1.198c1.24-0.285,2.379-0.553,3.425-0.829c0.553-0.159,1.005-0.302,1.357-0.444
	c0.352-0.142,0.628-0.302,0.829-0.519c0.201-0.184,0.327-0.452,0.394-0.762c0.067-0.301,0.1-0.687,0.1-1.156
	C150.747,42.804,150.571,42.192,150.194,41.749z M103.905,28.876h11.331l4.054,21.599h0.092l3.911-21.599h11.189v32.889h-7.177
	V36.154h-0.092l-5.025,25.611H116.2l-5.301-25.611h-0.092v25.611h-6.909L103.905,28.876L103.905,28.876z M260.72,225.271
	l-2.605,2.605h-19.723c-9.229,0-16.75,7.521-16.75,16.75v19.723l-2.605,2.605H32.499c-5.77,0-10.469-4.698-10.469-10.469V80.609
	h238.69V225.271z"/>
</svg>
