<?xml version="1.0"?>
<svg xmlns="http://www.w3.org/2000/svg" xmlns:xlink="http://www.w3.org/1999/xlink" version="1.1" id="Capa_1" x="0px" y="0px" viewBox="0 0 511.999 511.999" style="enable-background:new 0 0 511.999 511.999;" xml:space="preserve" width="512px" height="512px"><g><g>
	<g>
		<path d="M496.104,166.352c-0.003-0.024-0.008-0.047-0.011-0.071c-0.028-0.248-0.068-0.492-0.12-0.732    c-0.003-0.013-0.003-0.026-0.006-0.039L461.391,9.842c-1.269-5.714-6.337-9.78-12.19-9.78H297.515    c-0.381-0.046-0.767-0.072-1.162-0.059c-0.23,0.008-0.456,0.031-0.679,0.059h-80.145c-0.206-0.017-0.414-0.031-0.625-0.031    s-0.418,0.014-0.624,0.031h-84.653c-0.402-0.033-0.799-0.031-1.191,0H62.799c-5.899,0-10.911,4.021-12.191,9.781L38.267,65.408    c-0.826,3.72,1.109,7.628,4.696,8.915c4.337,1.557,8.912-1.064,9.879-5.418l11.962-53.858h55.991l-13.344,144.594H32.688    l8.024-36.124c0.825-3.716-1.109-7.621-4.692-8.907c-4.337-1.556-8.916,1.062-9.884,5.417L16.033,165.51    c-0.003,0.013-0.004,0.026-0.006,0.039c-0.052,0.24-0.092,0.484-0.12,0.732c-0.003,0.024-0.008,0.047-0.011,0.071    c-0.027,0.257-0.041,0.518-0.041,0.782c0,0.01,0.001,0.021,0.001,0.031c0,0.017,0.001,0.035,0.001,0.052    c0.042,27.263,20.347,49.852,46.629,53.51v117.008H35.492c-2.432,0-4.403,1.971-4.403,4.403v37.281    c0,2.432,1.971,4.403,4.403,4.403s4.403,1.971,4.403,4.403v116.281c0,4.138,3.355,7.493,7.493,7.493h417.225    c4.138,0,7.493-3.355,7.493-7.493V475.85c0-4.103-3.161-7.68-7.262-7.803c-4.243-0.127-7.723,3.275-7.723,7.489v21.479h-56.099    V383.823h56.099v38.949c0,4.103,3.161,7.68,7.262,7.803c4.243,0.127,7.723-3.275,7.723-7.489v-34.86    c0-2.432,1.971-4.403,4.403-4.403s4.403-1.971,4.403-4.403v-37.281c0-2.432-1.971-4.403-4.403-4.403h-26.995V220.728    c26.282-3.657,46.587-26.246,46.629-53.51c0-0.017,0.001-0.035,0.001-0.052c0-0.01,0.001-0.021,0.001-0.031    C496.145,166.87,496.13,166.61,496.104,166.352z M447.197,15.048l32.116,144.594h-77.007L390.633,15.048H447.197z M375.599,15.048    l11.672,144.594h-77.647l-5.23-144.594H375.599z M387.436,174.627c-3.506,18.009-19.4,31.646-38.419,31.646    c-19.019,0-34.913-13.637-38.419-31.646H387.436z M222.126,15.048H289.4l5.23,144.594h-77.829L222.126,15.048z M294.186,174.627    c-3.506,18.009-19.4,31.646-38.419,31.646c-19.019,0-34.913-13.637-38.419-31.646H294.186z M135.844,15.048h71.286l-5.326,144.594    h-79.301L135.844,15.048z M200.81,174.627c-3.506,18.009-19.4,31.646-38.419,31.646c-19.019,0-34.913-13.637-38.419-31.646H200.81    z M116.185,195.289c9.517,15.561,26.668,25.97,46.206,25.97c19.879,0,37.277-10.78,46.688-26.793    c9.411,16.014,26.809,26.793,46.688,26.793c19.834,0,37.2-10.73,46.625-26.684c9.425,15.954,26.791,26.684,46.625,26.684    c19.746,0,37.049-10.634,46.502-26.471c8.236,13.797,22.431,23.633,39.009,25.94v117.008h-14.854v-32.764    c0-2.759-2.236-4.995-4.995-4.995h-16.35v-19.775h12.5c2.759,0,4.995-2.236,4.995-4.995v-28.972c0-2.759-2.236-4.995-4.995-4.995    h-56.635c-2.759,0-4.995,2.236-4.995,4.995v28.972c0,2.759,2.236,4.995,4.995,4.995h29.15v19.775h-74.895    c-2.759,0-4.995,2.236-4.995,4.995v32.764h-54.551v-93.111c0-2.759-2.236-4.995-4.995-4.995H111.751    c-2.759,0-4.995,2.236-4.995,4.995v93.111H77.472V220.728C93.849,218.449,107.907,208.825,116.185,195.289z M404.689,314.962    v22.774h-86.25v-22.774H404.689z M364.184,265.216v-8.991h36.654v8.991H364.184z M233.918,254.615v83.121H121.742v-83.121H233.918    z M31.56,174.627h76.838c-3.506,18.009-19.4,31.646-38.419,31.646S35.066,192.636,31.56,174.627z M110.979,497.015H54.88V383.823    h56.099V497.015z M179.743,497.015h-53.778V383.823h53.778V497.015z M248.507,497.015h-53.779V383.823h53.779V497.015z     M317.272,497.015h-53.779V383.823h53.779V497.015z M386.035,497.015h-53.778V383.823h53.778V497.015z M465.926,352.721v16.117    h-1.314H47.388h-1.314v-16.117h68.175h127.162h69.536h101.235H465.926z M442.021,206.273c-19.019,0-34.913-13.637-38.419-31.646    h76.837C476.934,192.636,461.04,206.273,442.021,206.273z" data-original="#000000" class="active-path" data-old_color="#000000" fill="#1FDC57"/>
	</g>
</g></g> </svg>
